<svg width="406" height="159" viewBox="0 0 406 159" fill="none" xmlns="http://www.w3.org/2000/svg">
<path d="M49.2183 51.2001C49.2183 60.5073 46.6541 75.6848 24.8079 75.6848C16.6032 75.6848 8.80847 72.7493 4.29463 66.1727C1.83353 62.9368 0.706055 57.7744 0.706055 55.7524L15.5773 53.323C15.5773 58.6856 17.1162 62.329 24.6026 62.329C33.1157 62.329 33.1157 55.6515 33.1157 50.4915V1.72153H49.2183V51.2001Z" fill="#363636"/>
<path d="M125.528 46.6447C125.528 66.1727 113.835 75.6841 94.2455 75.6841C74.4505 75.6841 63.0671 66.3745 63.0671 46.6447V1.72158H79.1689V46.6447C79.1689 54.537 81.2201 62.3283 94.2455 62.3283C105.733 62.3283 109.425 57.4725 109.425 46.6447V1.72158H125.528V46.6447Z" fill="#363636"/>
<path d="M150.147 52.5127C151.788 62.0248 160.404 63.3404 166.354 63.3404C171.994 63.3404 180.609 61.7213 180.609 54.3344C180.609 38.9543 137.019 48.8716 137.019 21.8558C137.019 6.98177 151.173 1.52588e-05 164.404 1.52588e-05C179.687 1.52588e-05 193.736 6.57738 193.736 23.2731L178.148 21.0462C176.2 12.6479 168.712 12.3468 163.686 12.3468C158.558 12.3468 152.61 14.4696 152.61 20.5401C152.61 25.902 156.097 27.1167 174.455 31.4696C179.89 32.7829 196.198 36.1228 196.198 52.5127C196.198 65.7676 185.738 75.6841 165.738 75.6841C149.327 75.6841 134.558 67.7919 134.558 49.9847L150.147 52.5127Z" fill="#363636"/>
<path d="M224.309 15.078H201.027V1.82311H263.489V15.1789H240.412L240.31 78.6404L224.207 81.1685L224.309 15.078Z" fill="#363636"/>
<path d="M207.519 88.3884C205.292 88.5506 203.054 88.5747 200.814 88.5646L185.448 135.829H185.243L170.015 88.3969C168.212 88.393 166.421 88.3752 164.629 88.2269C160.923 88.4924 157.191 88.5234 153.468 88.5195L176.115 157.279H194.268L217.927 86.9656C214.641 88.0787 210.762 88.1524 207.519 88.3884Z" fill="#363636"/>
<path d="M224.839 86.3874L240.942 85.0368V157.279H224.839V86.3874Z" fill="#363636"/>
<path d="M265.357 135.829C266.996 145.341 275.612 146.657 281.56 146.657C287.2 146.657 295.817 145.037 295.817 137.651C295.817 122.27 252.229 132.188 252.229 105.172C252.229 90.2979 266.38 83.3162 279.611 83.3162C294.894 83.3162 308.945 89.8935 308.945 106.589L293.355 104.362C291.407 95.9641 283.92 95.6629 278.893 95.6629C273.765 95.6629 267.817 97.7858 267.817 103.856C267.817 109.218 271.305 110.433 289.663 114.786C295.098 116.099 311.405 119.439 311.405 135.829C311.405 149.084 300.944 159 280.945 159C264.536 159 249.766 151.108 249.766 133.301L265.357 135.829Z" fill="#363636"/>
<path d="M355.519 98.6961L343.212 126.622H367.519L355.622 98.6961H355.519ZM313.98 157.279L347.211 85.1377H363.417L396.134 157.279H380.544L373.365 141.291H336.34L328.648 157.279H313.98Z" fill="#363636"/>
<path d="M273.405 78.4258C259.329 80.6333 137.454 104.717 82.0345 66.7528C80.8378 68.8198 79.5569 70.8355 78.202 72.8063C152.553 105.765 272.691 79.84 273.759 80.3834C273.759 80.3834 275.019 78.1736 273.405 78.4258Z" fill="#363636"/>
<path fill-rule="evenodd" clip-rule="evenodd" d="M403.62 48.8087C397.768 47.3526 390.771 47.3867 384.475 48.8025C384.475 48.8025 383.391 47.9751 383.109 46.9746C382.593 45.1428 388.053 45.0178 390.254 46.1844C390.993 46.5756 391.438 47.3541 391.491 47.4387C391.641 47.4263 391.791 47.4139 391.946 47.4053C391.899 46.9024 390.505 45.565 389.773 45.1381C387.124 43.5927 383.604 42.5689 377.707 43.9218L286.088 67.85C281.95 68.3212 278.887 67.4852 276.901 65.3367L272.008 58.809C271.21 57.9335 270.34 57.6269 269.398 57.8916L266.085 59.0815C267.003 64.4426 267.523 69.029 267.639 72.8385C267.468 76.5619 267.657 78.7531 264.626 80.071L267.325 81.0568C269.45 80.4156 270.902 80.3272 272.137 80.314L283.558 79.3461C287.141 79.2739 295.649 78.1492 296.805 77.9994C302.492 77.5065 289.875 85.1379 289.875 85.1379L340.622 61.3805C345.223 58.9138 347.442 64.2594 343.112 65.9546L278.354 92.6638C300.263 85.0595 328.073 75.9316 342.684 70.2158C365.844 65.8063 386.122 61.4116 393.439 59.3958C399.058 57.6269 402.112 56.0885 404.626 53.5232C408.096 49.9846 403.938 48.9135 403.62 48.8087Z" fill="#363636"/>
</svg>
