<svg width="138" height="54" viewBox="0 0 138 54" fill="none" xmlns="http://www.w3.org/2000/svg">
<path d="M16.4757 17.3886C16.4757 20.5496 15.6049 25.7042 8.18549 25.7042C5.39901 25.7042 2.75174 24.7072 1.21875 22.4737C0.382914 21.3747 0 19.6214 0 18.9347L5.05056 18.1096C5.05056 19.9309 5.57323 21.1683 8.11575 21.1683C11.007 21.1683 11.007 18.9004 11.007 17.1479V0.584433H16.4757V17.3886Z" fill="#E41B4D"/>
<path d="M42.393 15.8417C42.393 22.4739 38.422 25.7042 31.769 25.7042C25.0462 25.7042 21.1802 22.5425 21.1802 15.8417V0.584694H26.6487V15.8417C26.6487 18.5221 27.3453 21.1683 31.769 21.1683C35.6703 21.1683 36.9243 19.5191 36.9243 15.8417V0.584694H42.393V15.8417Z" fill="#E41B4D"/>
<path d="M50.7547 17.8346C51.3121 21.0652 54.2381 21.512 56.2588 21.512C58.1744 21.512 61.1001 20.9621 61.1001 18.4533C61.1001 13.2299 46.2963 16.598 46.2963 7.42277C46.2963 2.37119 51.1032 7.62939e-06 55.5966 7.62939e-06C60.7869 7.62939e-06 65.5585 2.23385 65.5585 7.90413L60.2643 7.14783C59.6026 4.29555 57.0596 4.19327 55.3526 4.19327C53.6112 4.19327 51.5911 4.91425 51.5911 6.97595C51.5911 8.79698 52.7754 9.20953 59.0102 10.6879C60.8561 11.1339 66.3944 12.2682 66.3944 17.8346C66.3944 22.3363 62.842 25.7042 56.0495 25.7042C50.4763 25.7042 45.4602 23.0238 45.4602 16.9761L50.7547 17.8346Z" fill="#E41B4D"/>
<path d="M75.9401 5.12049H68.0331V0.618793H89.2465V5.15475H81.4089L81.3741 26.7079L75.9054 27.5665L75.9401 5.12049Z" fill="#E41B4D"/>
<path d="M70.2387 30.0186C69.4825 30.0737 68.7223 30.0818 67.9616 30.0784L62.7432 46.1305H62.6734L57.5016 30.0215C56.8894 30.0201 56.2809 30.0141 55.6725 29.9637C54.4139 30.0539 53.1465 30.0644 51.8818 30.0631L59.5735 53.4156H65.7386L73.7737 29.5354C72.6575 29.9134 71.3402 29.9384 70.2387 30.0186Z" fill="#007BFF"/>
<path d="M76.1205 29.339L81.5892 28.8803V53.4156H76.1205V29.339Z" fill="#007BFF"/>
<path d="M89.8807 46.1304C90.4373 49.361 93.3636 49.8078 95.3837 49.8078C97.2993 49.8078 100.226 49.2579 100.226 46.7491C100.226 41.5256 85.4223 44.8938 85.4223 35.7185C85.4223 30.667 90.2284 28.2958 94.7218 28.2958C99.9121 28.2958 104.684 30.5296 104.684 36.1999L99.3895 35.4436C98.7281 32.5913 96.1853 32.489 94.4778 32.489C92.7364 32.489 90.7163 33.21 90.7163 35.2717C90.7163 37.0928 91.9008 37.5053 98.1357 38.9836C99.9816 39.4297 105.52 40.564 105.52 46.1304C105.52 50.6321 101.967 54 95.1747 54C89.602 54 84.5859 51.3196 84.5859 45.2718L89.8807 46.1304Z" fill="#007BFF"/>
<path d="M120.5 33.5194L116.32 43.0039H124.575L120.535 33.5194H120.5ZM106.393 53.4157L117.678 28.9146H123.182L134.294 53.4157H128.999L126.561 47.9858H113.987L111.374 53.4157H106.393Z" fill="#007BFF"/>
<path d="M92.614 26.6351C87.8333 27.3848 46.4423 35.5644 27.6207 22.6707C27.2143 23.3727 26.7792 24.0573 26.3191 24.7266C51.57 35.9203 92.3714 27.1154 92.7342 27.3C92.7342 27.3 93.162 26.5495 92.614 26.6351Z" fill="#E41B4D"/>
<path fill-rule="evenodd" clip-rule="evenodd" d="M136.838 16.5762C134.851 16.0816 132.475 16.0932 130.336 16.574C130.336 16.574 129.968 16.293 129.873 15.9532C129.698 15.3311 131.552 15.2887 132.299 15.6849C132.55 15.8177 132.701 16.0821 132.719 16.1109C132.77 16.1067 132.821 16.1024 132.874 16.0995C132.858 15.9287 132.385 15.4745 132.136 15.3295C131.236 14.8047 130.041 14.457 128.038 14.9165L96.9224 23.0431C95.5169 23.2031 94.4766 22.9192 93.8022 22.1895L92.1407 19.9725C91.8695 19.6752 91.5742 19.571 91.2541 19.6609L90.1291 20.065C90.4407 21.8858 90.6173 23.4435 90.6566 24.7373C90.5986 26.0018 90.663 26.746 89.6334 27.1936L90.55 27.5284C91.2717 27.3107 91.765 27.2806 92.1842 27.2761L96.0631 26.9474C97.2799 26.9229 100.169 26.5409 100.562 26.49C102.494 26.3227 98.2085 28.9145 98.2085 28.9145L115.443 20.8459C117.006 20.0081 117.759 21.8236 116.289 22.3993L94.2957 31.4705C101.736 28.8879 111.181 25.7878 116.143 23.8466C124.009 22.349 130.896 20.8564 133.381 20.1718C135.289 19.571 136.326 19.0486 137.18 18.1773C138.359 16.9755 136.947 16.6117 136.838 16.5762Z" fill="#E41B4D"/>
</svg>
