<svg width="64" height="40" viewBox="0 0 64 40" fill="none" xmlns="http://www.w3.org/2000/svg">
<path fill-rule="evenodd" clip-rule="evenodd" d="M1.11259 0.789627L0.984497 29.8264C0.984497 29.8264 10.1377 29.8803 10.1356 29.879C10.1335 29.8778 20.2402 30.1929 20.6697 21.974C20.9922 15.801 13.9174 14.9118 13.9174 14.9118C13.9174 14.9118 13.8884 14.3553 13.9108 14.3556C15.6283 14.3829 19.9839 12.3877 19.841 8.50069C19.5604 0.874516 10.6927 0.85342 10.6927 0.85342L1.11259 0.789627ZM7.29617 5.23848C7.29768 5.26025 7.27499 12.6297 7.27238 12.6322C9.42292 12.5477 13.9703 13.4082 14.0654 8.91095C14.156 4.62821 10.3947 5.34808 7.29617 5.23848ZM7.24609 16.9353C7.2719 16.9216 7.30106 24.8858 7.29022 24.8578C10.3797 24.9901 14.688 25.0456 14.4693 20.8783C14.2539 16.7777 11.1421 16.9105 7.24609 16.9353Z" fill="#818181"/>
<path fill-rule="evenodd" clip-rule="evenodd" d="M25.634 0.768071C25.6595 0.729157 25.6098 29.6851 25.5444 29.733C25.479 29.7809 41.5509 29.7198 41.5509 29.7198L41.6646 25.0006L31.8042 24.9644L31.7502 0.733612C31.7502 0.733612 25.6084 0.80707 25.634 0.768071Z" fill="#818181"/>
<path fill-rule="evenodd" clip-rule="evenodd" d="M58.9968 7.27543L62.8077 3.79887C62.8077 3.79887 59.6891 -0.0309408 54.1596 7.29081e-05C48.2229 0.0333559 44.3328 3.85543 44.2235 8.13818C44.119 12.2301 47.3812 14.8727 51.1733 16.6137C56.0739 18.8636 57.8227 20.1638 57.6374 22.4565C57.4542 24.7219 55.447 26.0468 53.1529 26.1098C49.7863 26.2023 47.3958 22.5368 47.3958 22.5368L43.9396 26.4866C43.9396 26.4866 46.5696 31.0353 53.5615 30.8027C60.5533 30.5701 63.7697 25.639 63.6494 22.125C63.5032 17.85 61.3232 15.9616 57.844 14.0733C54.1566 12.072 50.2906 11.0516 50.2596 8.11162C50.2338 5.65952 53.2936 4.69474 54.285 4.69717C55.4469 4.69995 57.0614 4.71802 58.9968 7.27543Z" fill="#818181"/>
<path fill-rule="evenodd" clip-rule="evenodd" d="M0.956299 29.8376C0.956299 29.8376 24.6794 17.2672 55.0275 13.656C25.0069 13.6975 0.956299 25.3629 0.956299 25.3629L0.956299 29.8376Z" fill="white"/>
<path d="M58.5853 39.8747V33.1392H59.3936V39.0665H62.4101V39.8747H58.5853Z" fill="#B89341"/>
<path d="M54.9564 33.1392H55.9331L58.3819 39.8747H57.5255L57.0252 38.4988H53.8643L53.3688 39.8747H52.5076L54.9564 33.1392ZM54.1626 37.6905H56.7269L55.4423 34.1736L54.1626 37.6905Z" fill="#B89341"/>
<path d="M47.1718 39.8747V33.1392H48.0474L51.4103 38.4122V33.1392H52.2186V39.8747H51.3478L47.98 34.6018V39.8747H47.1718Z" fill="#B89341"/>
<path d="M43.5773 40.0001C43.1219 40.0001 42.6937 39.9103 42.2928 39.7306C41.8919 39.5478 41.539 39.296 41.2343 38.9753C40.9296 38.6546 40.6907 38.2841 40.5175 37.8639C40.3443 37.4406 40.2577 36.9883 40.2577 36.5072C40.2577 36.0261 40.3443 35.5755 40.5175 35.1553C40.6907 34.7319 40.9296 34.3599 41.2343 34.0391C41.539 33.7184 41.8919 33.4682 42.2928 33.2886C42.6937 33.1058 43.1219 33.0144 43.5773 33.0144C44.036 33.0144 44.4658 33.1058 44.8667 33.2886C45.2676 33.4682 45.6204 33.7184 45.9251 34.0391C46.2298 34.3599 46.4672 34.7319 46.6372 35.1553C46.8104 35.5755 46.897 36.0261 46.897 36.5072C46.897 36.9883 46.8104 37.4406 46.6372 37.8639C46.4672 38.2841 46.2298 38.6546 45.9251 38.9753C45.6204 39.296 45.2676 39.5478 44.8667 39.7306C44.4658 39.9103 44.036 40.0001 43.5773 40.0001ZM43.5773 39.1918C43.9269 39.1918 44.2525 39.1212 44.554 38.9801C44.8587 38.839 45.1249 38.6449 45.3526 38.398C45.5836 38.1478 45.7632 37.8623 45.8915 37.5416C46.023 37.2176 46.0887 36.8729 46.0887 36.5072C46.0887 36.1416 46.023 35.7968 45.8915 35.4728C45.76 35.1457 45.5787 34.8602 45.3478 34.6165C45.1201 34.3695 44.8539 34.1754 44.5492 34.0343C44.2477 33.8932 43.9237 33.8226 43.5773 33.8226C43.2277 33.8226 42.9006 33.8932 42.5959 34.0343C42.2944 34.1754 42.0282 34.3711 41.7972 34.6213C41.5695 34.8682 41.3899 35.1537 41.2584 35.4776C41.1301 35.7984 41.066 36.1416 41.066 36.5072C41.066 36.8761 41.1317 37.2225 41.2632 37.5464C41.3947 37.8704 41.5743 38.1558 41.802 38.4028C42.033 38.6497 42.2992 38.8438 42.6007 38.9849C42.9054 39.1228 43.2309 39.1918 43.5773 39.1918Z" fill="#B89341"/>
<path d="M39.0128 39.8747V33.1392H39.8211V39.8747H39.0128Z" fill="#B89341"/>
<path d="M38.5761 33.1392V33.9475H36.3341V39.8747H35.5258V33.9475H33.2887V33.1392H38.5761Z" fill="#B89341"/>
<path d="M30.6228 33.1392H31.5994L34.0483 39.8747H33.1919L32.6916 38.4988H29.5307L29.0351 39.8747H28.174L30.6228 33.1392ZM29.829 37.6905H32.3933L31.1087 34.1736L29.829 37.6905Z" fill="#B89341"/>
<path d="M22.8383 39.8747V33.1392H23.7139L27.0768 38.4122V33.1392H27.8851V39.8747H27.0143L23.6465 34.6018V39.8747H22.8383Z" fill="#B89341"/>
<path d="M17.949 39.8747V33.1392H20.316C20.6753 33.1392 20.9992 33.2274 21.2879 33.4038C21.5797 33.5802 21.8107 33.8192 21.9807 34.1207C22.1539 34.419 22.2405 34.7525 22.2405 35.1214C22.2405 35.4453 22.1763 35.7404 22.048 36.0066C21.9197 36.2728 21.7433 36.4958 21.5188 36.6754C21.2975 36.8518 21.0457 36.9737 20.7635 37.041L22.3992 39.8747H21.4659L19.859 37.1084H18.7572V39.8747H17.949ZM18.7572 36.3001H20.2342C20.4523 36.3001 20.6528 36.2472 20.8356 36.1413C21.0184 36.0323 21.1628 35.8864 21.2686 35.7035C21.3777 35.5175 21.4322 35.309 21.4322 35.0781C21.4322 34.844 21.3777 34.6355 21.2686 34.4527C21.1628 34.2666 21.0184 34.1207 20.8356 34.0148C20.6528 33.9058 20.4523 33.8513 20.2342 33.8513H18.7572V36.3001Z" fill="#B89341"/>
<path d="M13.3793 39.8747V33.1392H17.512V33.9475H14.1875V35.8623H16.9106V36.6706H14.1875V39.0665H17.512V39.8747H13.3793Z" fill="#B89341"/>
<path d="M13.0867 33.1392V33.9475H10.8447V39.8747H10.0365V33.9475H7.79932V33.1392H13.0867Z" fill="#B89341"/>
<path d="M2.46362 39.8747V33.1392H3.33924L6.70219 38.4122V33.1392H7.51045V39.8747H6.63964L3.27188 34.6018V39.8747H2.46362Z" fill="#B89341"/>
<path d="M1.02637 39.8747V33.1392H1.83463V39.8747H1.02637Z" fill="#B89341"/>
<rect width="4.70752" height="6.72834" transform="translate(17.8208 33.1386)" fill="white"/>
<path fill-rule="evenodd" clip-rule="evenodd" d="M17.8208 33.1716L17.9001 39.7788L18.7237 39.8037L18.6782 36.9901L21.2969 39.8339H22.4821L19.9959 37.1931C19.9959 37.1931 22.0413 36.9823 21.9426 35.2012C21.8439 33.4202 19.8982 33.1811 19.8982 33.1811L17.8208 33.1716ZM18.6801 33.9159L18.6973 36.4795C18.6973 36.4795 21.1541 36.8644 21.1412 35.1751C21.1283 33.4858 18.6801 33.9159 18.6801 33.9159Z" fill="#B89341"/>
</svg>
