<svg width="60" height="40" viewBox="0 0 60 40" fill="none" xmlns="http://www.w3.org/2000/svg">
<path fill-rule="evenodd" clip-rule="evenodd" d="M0.68029 2.18555L12.5425 2.09111L12.8279 33.6248L23.2777 33.2748L23.4045 40L0.652588 39.9106L0.68029 2.18555Z" fill="#C63C35"/>
<path fill-rule="evenodd" clip-rule="evenodd" d="M5.20823 0.0314792L16.0232 0L16.2566 24.0933L29.273 24.1983L29.3263 36.2539L5.15576 36.4277L5.20823 0.0314792Z" fill="#C3C3C3"/>
<path fill-rule="evenodd" clip-rule="evenodd" d="M17.0181 2.82847L20.9467 2.85617L23.538 11.8378L24.0975 11.847L26.6091 2.75922L30.3644 2.75082L25.8515 15.5444L21.8335 15.6002C21.8335 15.6002 17.3526 2.71515 17.0181 2.82847Z" fill="black"/>
<path fill-rule="evenodd" clip-rule="evenodd" d="M32.0191 2.82558L37.0268 2.86672L39.1359 10.7802L41.1195 2.86042L46.1948 2.86966L46.243 15.5956L43.0133 15.6322L43.0095 5.47235L40.4605 15.539L37.7092 15.489L35.2845 5.78043L35.3584 15.7077L31.9796 15.7765L32.0191 2.82558Z" fill="black"/>
<path fill-rule="evenodd" clip-rule="evenodd" d="M48.823 6.58949C48.8998 9.35588 51.2473 9.62408 53.249 9.97623C55.0958 10.3007 56.2089 10.9974 56.2454 11.9846C56.2819 12.9714 55.3678 13.3642 54.334 13.4091C53.3002 13.454 51.9999 13.164 51.8702 11.269C51.8698 11.2602 48.402 11.2568 48.4012 11.2874C48.3521 12.9739 49.0178 15.5371 53.8828 15.6601C58.2928 15.7713 59.6321 13.8549 59.6934 11.5943C59.7547 9.33321 57.6838 8.171 55.9617 7.64551C54.2303 7.11666 52.1695 7.2346 52.2412 5.94438C52.2883 5.10661 52.9447 4.80735 53.8228 4.72718C54.7608 4.64198 55.5218 4.88752 55.7816 6.16053C55.798 6.17397 59.2002 6.21216 59.2002 6.21216C59.2002 6.21216 58.7104 2.48922 53.9424 2.58282C50.6106 2.64872 48.7471 3.86465 48.823 6.58949Z" fill="black"/>
<rect x="0.652588" y="15.5589" width="59.1761" height="7.29568" fill="white"/>
<path d="M57.6827 20.9294H57.1276V16.3696H57.6827V20.9294ZM58.2467 19.2135L57.4571 20.0269L57.4126 19.4451L57.9766 18.7771L58.9681 17.7174H59.642L58.2467 19.2135ZM57.9944 19.3946L58.2824 18.9078L59.7904 20.9294H59.1373L57.9944 19.3946Z" fill="black"/>
<path d="M55.7354 17.7172H56.2905V20.9293H55.7621L55.7354 20.1871V17.7172ZM56.0709 19.5043C56.0709 19.7893 56.0303 20.0436 55.9491 20.2673C55.868 20.4909 55.7354 20.6671 55.5513 20.7957C55.3673 20.9243 55.1209 20.9887 54.8122 20.9887C54.4975 20.9887 54.2432 20.8956 54.0492 20.7096C53.8553 20.5236 53.7583 20.2168 53.7583 19.7893V17.7172H54.3134V19.7953C54.3134 19.9892 54.3411 20.1396 54.3966 20.2465C54.4539 20.3514 54.5272 20.4246 54.6162 20.4662C54.7073 20.5058 54.8023 20.5255 54.9012 20.5255C55.1348 20.5255 55.3198 20.481 55.4564 20.392C55.5929 20.3009 55.6909 20.1782 55.7502 20.0238C55.8096 19.8695 55.8393 19.6983 55.8393 19.5103L56.0709 19.5043Z" fill="black"/>
<path d="M52.5144 20.962C52.4035 20.962 52.3184 20.9314 52.2591 20.87C52.2017 20.8087 52.173 20.7325 52.173 20.6414C52.173 20.5484 52.2017 20.4702 52.2591 20.4069C52.3184 20.3416 52.4035 20.309 52.5144 20.309C52.6272 20.309 52.7123 20.3416 52.7697 20.4069C52.829 20.4702 52.8587 20.5484 52.8587 20.6414C52.8587 20.7325 52.829 20.8087 52.7697 20.87C52.7123 20.9314 52.6272 20.962 52.5144 20.962Z" fill="black"/>
<path d="M48.5453 19.2906C48.5453 18.9799 48.6047 18.7018 48.7234 18.4564C48.8422 18.211 49.0104 18.0171 49.2281 17.8746C49.4458 17.7301 49.704 17.6579 50.0029 17.6579C50.3057 17.6579 50.5669 17.7301 50.7866 17.8746C51.0063 18.0171 51.1745 18.211 51.2913 18.4564C51.41 18.7018 51.4694 18.9799 51.4694 19.2906V19.3589C51.4694 19.6676 51.41 19.9457 51.2913 20.1931C51.1745 20.4385 51.0063 20.6324 50.7866 20.7749C50.5689 20.9174 50.3096 20.9887 50.0088 20.9887C49.708 20.9887 49.4477 20.9174 49.2281 20.7749C49.0104 20.6324 48.8422 20.4385 48.7234 20.1931C48.6047 19.9457 48.5453 19.6676 48.5453 19.3589V19.2906ZM49.1004 19.3589C49.1004 19.5707 49.1341 19.7666 49.2014 19.9467C49.2686 20.1268 49.3686 20.2713 49.5012 20.3801C49.6358 20.4889 49.805 20.5434 50.0088 20.5434C50.2107 20.5434 50.3779 20.4889 50.5105 20.3801C50.6451 20.2713 50.746 20.1268 50.8133 19.9467C50.8806 19.7666 50.9142 19.5707 50.9142 19.3589V19.2906C50.9142 19.0789 50.8806 18.8829 50.8133 18.7028C50.746 18.5227 50.6451 18.3783 50.5105 18.2694C50.3759 18.1586 50.2067 18.1032 50.0029 18.1032C49.803 18.1032 49.6358 18.1586 49.5012 18.2694C49.3666 18.3783 49.2657 18.5227 49.1984 18.7028C49.1331 18.8829 49.1004 19.0789 49.1004 19.2906V19.3589Z" fill="black"/>
<path d="M46.7878 20.9887C46.4652 20.9887 46.198 20.9154 45.9863 20.769C45.7745 20.6206 45.6162 20.4246 45.5113 20.1812C45.4084 19.9378 45.3569 19.6726 45.3569 19.3856V19.2609C45.3569 18.972 45.4094 18.7068 45.5143 18.4653C45.6192 18.2219 45.7775 18.027 45.9892 17.8805C46.201 17.7321 46.4672 17.6579 46.7878 17.6579C47.0392 17.6579 47.2588 17.7093 47.4468 17.8122C47.6368 17.9132 47.7853 18.0517 47.8921 18.2279C48.001 18.402 48.0604 18.5999 48.0703 18.8216H47.5448C47.5349 18.689 47.4973 18.5683 47.432 18.4594C47.3687 18.3506 47.2816 18.2645 47.1708 18.2011C47.0619 18.1358 46.9343 18.1032 46.7878 18.1032C46.5642 18.1032 46.388 18.1606 46.2594 18.2753C46.1327 18.3901 46.0427 18.5366 45.9892 18.7147C45.9378 18.8908 45.9121 19.0729 45.9121 19.2609V19.3856C45.9121 19.5736 45.9378 19.7567 45.9892 19.9348C46.0407 20.1129 46.1298 20.2594 46.2564 20.3742C46.3851 20.487 46.5622 20.5434 46.7878 20.5434C46.9184 20.5434 47.0392 20.5167 47.15 20.4632C47.2608 20.4078 47.3518 20.3326 47.4231 20.2376C47.4943 20.1426 47.5349 20.0348 47.5448 19.914H48.0703C48.0604 20.104 47.996 20.2811 47.8773 20.4454C47.7585 20.6077 47.6042 20.7393 47.4142 20.8402C47.2242 20.9392 47.0154 20.9887 46.7878 20.9887Z" fill="black"/>
<path d="M44.2439 20.962C44.133 20.962 44.0479 20.9314 43.9886 20.87C43.9312 20.8087 43.9025 20.7325 43.9025 20.6414C43.9025 20.5484 43.9312 20.4702 43.9886 20.4069C44.0479 20.3416 44.133 20.309 44.2439 20.309C44.3567 20.309 44.4418 20.3416 44.4992 20.4069C44.5585 20.4702 44.5882 20.5484 44.5882 20.6414C44.5882 20.7325 44.5585 20.8087 44.4992 20.87C44.4418 20.9314 44.3567 20.962 44.2439 20.962Z" fill="black"/>
<path d="M43.0148 20.9294H42.4597V16.3696H43.0148V20.9294Z" fill="black"/>
<path d="M40.9931 18.7266C40.9931 18.5346 40.9357 18.3822 40.8209 18.2694C40.7081 18.1546 40.5409 18.0972 40.3192 18.0972C40.1827 18.0972 40.0619 18.121 39.957 18.1685C39.8541 18.216 39.774 18.2783 39.7166 18.3555C39.6592 18.4327 39.6305 18.5168 39.6305 18.6078H39.0754C39.0754 18.4535 39.1278 18.304 39.2327 18.1596C39.3376 18.0131 39.485 17.8934 39.675 17.8004C39.867 17.7054 40.0926 17.6579 40.3519 17.6579C40.5854 17.6579 40.7922 17.6975 40.9723 17.7766C41.1524 17.8558 41.2929 17.9755 41.3939 18.1358C41.4968 18.2941 41.5482 18.493 41.5482 18.7325V20.2287C41.5482 20.3356 41.5571 20.4494 41.5749 20.5701C41.5947 20.6908 41.6234 20.7947 41.661 20.8818V20.9293H41.0821C41.0544 20.866 41.0327 20.7819 41.0168 20.677C41.001 20.5701 40.9931 20.4711 40.9931 20.3801V18.7266ZM41.0881 19.3678H40.5419C40.2292 19.3678 39.9877 19.4173 39.8175 19.5162C39.6473 19.6152 39.5622 19.7636 39.5622 19.9615C39.5622 20.1159 39.6137 20.2465 39.7166 20.3534C39.8215 20.4603 39.9739 20.5137 40.1737 20.5137C40.342 20.5137 40.4904 20.4781 40.619 20.4068C40.7477 20.3356 40.8496 20.2475 40.9248 20.1426C41 20.0377 41.0406 19.9368 41.0465 19.8398L41.284 20.104C41.2702 20.1871 41.2326 20.2792 41.1712 20.3801C41.1099 20.481 41.0277 20.578 40.9248 20.671C40.8239 20.7621 40.7032 20.8383 40.5626 20.8996C40.4241 20.959 40.2678 20.9887 40.0936 20.9887C39.8759 20.9887 39.6849 20.9471 39.5207 20.864C39.3584 20.7789 39.2317 20.6641 39.1407 20.5196C39.0516 20.3752 39.0071 20.2148 39.0071 20.0387C39.0071 19.6924 39.1377 19.4301 39.3989 19.252C39.6602 19.0719 40.0115 18.9819 40.4528 18.9819H41.0881V19.3678Z" fill="black"/>
<path d="M37.1607 20.9888C36.8876 20.9888 36.66 20.9274 36.4779 20.8047C36.2958 20.68 36.1543 20.5049 36.0534 20.2793C35.9525 20.0517 35.8862 19.7825 35.8545 19.4718V19.1839C35.8862 18.8692 35.9525 18.598 36.0534 18.3704C36.1543 18.1429 36.2949 17.9677 36.475 17.845C36.657 17.7203 36.8836 17.658 37.1548 17.658C37.4239 17.658 37.6515 17.7263 37.8376 17.8628C38.0236 17.9994 38.1651 18.1913 38.2621 18.4387C38.359 18.6841 38.4075 18.9701 38.4075 19.2967V19.359C38.4075 19.6717 38.359 19.9507 38.2621 20.1962C38.1651 20.4416 38.0236 20.6355 37.8376 20.778C37.6515 20.9185 37.4259 20.9888 37.1607 20.9888ZM35.6853 20.9294V16.3696H36.2404V20.306L36.1929 20.9294H35.6853ZM37.0212 20.5257C37.2191 20.5257 37.3784 20.4732 37.4991 20.3683C37.6218 20.2615 37.7109 20.12 37.7663 19.9438C37.8237 19.7677 37.8524 19.5727 37.8524 19.359V19.2967C37.8524 19.0829 37.8257 18.887 37.7722 18.7089C37.7188 18.5288 37.6307 18.3853 37.508 18.2784C37.3873 18.1716 37.223 18.1181 37.0152 18.1181C36.8787 18.1181 36.759 18.1419 36.656 18.1894C36.5551 18.2369 36.469 18.3012 36.3978 18.3823C36.3265 18.4615 36.2681 18.5525 36.2226 18.6554C36.1791 18.7564 36.1464 18.8613 36.1247 18.9701V19.6915C36.1563 19.83 36.2078 19.9636 36.279 20.0922C36.3503 20.2189 36.4463 20.3228 36.567 20.404C36.6897 20.4851 36.8411 20.5257 37.0212 20.5257Z" fill="black"/>
<path d="M32.0695 19.2906C32.0695 18.9799 32.1288 18.7018 32.2476 18.4564C32.3663 18.211 32.5345 18.0171 32.7522 17.8746C32.9699 17.7301 33.2282 17.6579 33.5271 17.6579C33.8299 17.6579 34.0911 17.7301 34.3108 17.8746C34.5304 18.0171 34.6987 18.211 34.8154 18.4564C34.9342 18.7018 34.9935 18.9799 34.9935 19.2906V19.3589C34.9935 19.6676 34.9342 19.9457 34.8154 20.1931C34.6987 20.4385 34.5304 20.6324 34.3108 20.7749C34.0931 20.9174 33.8338 20.9887 33.533 20.9887C33.2322 20.9887 32.9719 20.9174 32.7522 20.7749C32.5345 20.6324 32.3663 20.4385 32.2476 20.1931C32.1288 19.9457 32.0695 19.6676 32.0695 19.3589V19.2906ZM32.6246 19.3589C32.6246 19.5707 32.6582 19.7666 32.7255 19.9467C32.7928 20.1268 32.8928 20.2713 33.0254 20.3801C33.1599 20.4889 33.3291 20.5434 33.533 20.5434C33.7349 20.5434 33.9021 20.4889 34.0347 20.3801C34.1693 20.2713 34.2702 20.1268 34.3375 19.9467C34.4048 19.7666 34.4384 19.5707 34.4384 19.3589V19.2906C34.4384 19.0789 34.4048 18.8829 34.3375 18.7028C34.2702 18.5227 34.1693 18.3783 34.0347 18.2694C33.9001 18.1586 33.7309 18.1032 33.5271 18.1032C33.3272 18.1032 33.1599 18.1586 33.0254 18.2694C32.8908 18.3783 32.7898 18.5227 32.7226 18.7028C32.6572 18.8829 32.6246 19.0789 32.6246 19.2906V19.3589Z" fill="black"/>
<path d="M31.3363 20.9294H30.7811V16.3696H31.3363V20.9294Z" fill="black"/>
<path d="M28.5428 22.1969C28.4319 22.1969 28.3013 22.1791 28.1509 22.1435C28.0025 22.1098 27.856 22.0514 27.7116 21.9683C27.5691 21.8872 27.4493 21.7773 27.3524 21.6388L27.6403 21.3152C27.7749 21.4775 27.9154 21.5903 28.0619 21.6536C28.2103 21.7189 28.3567 21.7516 28.5012 21.7516C28.7605 21.7516 28.9663 21.6774 29.1187 21.529C29.2731 21.3825 29.3502 21.1688 29.3502 20.8877V18.4238L29.4007 17.7172H29.9054V20.861C29.9054 21.144 29.847 21.3855 29.7302 21.5854C29.6154 21.7852 29.4551 21.9366 29.2493 22.0396C29.0455 22.1445 28.81 22.1969 28.5428 22.1969ZM28.4537 20.9887C28.1964 20.9887 27.9728 20.9184 27.7828 20.7779C27.5948 20.6354 27.4483 20.4415 27.3435 20.196C27.2405 19.9506 27.1891 19.6716 27.1891 19.3589V19.2966C27.1891 18.97 27.2405 18.684 27.3435 18.4386C27.4464 18.1912 27.5928 17.9993 27.7828 17.8627C27.9728 17.7262 28.1984 17.6579 28.4597 17.6579C28.6615 17.6579 28.8377 17.6935 28.9881 17.7647C29.1405 17.834 29.2691 17.9349 29.374 18.0675C29.4809 18.2001 29.565 18.3604 29.6263 18.5485C29.6897 18.7365 29.7332 18.9482 29.7569 19.1837V19.4717C29.7273 19.7824 29.661 20.0516 29.558 20.2792C29.4571 20.5048 29.3156 20.6799 29.1335 20.8046C28.9515 20.9273 28.7249 20.9887 28.4537 20.9887ZM28.5903 20.5256C28.7724 20.5256 28.9218 20.487 29.0385 20.4098C29.1553 20.3326 29.2493 20.2307 29.3206 20.104C29.3918 19.9774 29.4472 19.8398 29.4868 19.6914V18.97C29.4631 18.8612 29.4294 18.7563 29.3859 18.6553C29.3423 18.5524 29.2849 18.4614 29.2137 18.3822C29.1424 18.3011 29.0554 18.2368 28.9524 18.1893C28.8515 18.1418 28.7328 18.118 28.5962 18.118C28.3963 18.118 28.2331 18.1714 28.1064 18.2783C27.9817 18.3852 27.8897 18.5287 27.8303 18.7088C27.7729 18.8869 27.7442 19.0828 27.7442 19.2966V19.3589C27.7442 19.5726 27.7729 19.7676 27.8303 19.9437C27.8897 20.1199 27.9817 20.2614 28.1064 20.3682C28.2311 20.4731 28.3924 20.5256 28.5903 20.5256Z" fill="black"/>
<path d="M25.3605 20.9887C25.0775 20.9887 24.838 20.9382 24.6421 20.8373C24.4462 20.7363 24.2977 20.6067 24.1968 20.4484C24.0959 20.2881 24.0454 20.1189 24.0454 19.9407H24.6005C24.6104 20.0912 24.654 20.2109 24.7312 20.2999C24.8103 20.387 24.9063 20.4494 25.0191 20.487C25.1339 20.5246 25.2477 20.5434 25.3605 20.5434C25.5109 20.5434 25.6366 20.5236 25.7375 20.484C25.8404 20.4424 25.9176 20.387 25.9691 20.3178C26.0225 20.2465 26.0492 20.1664 26.0492 20.0773C26.0492 19.9981 26.0314 19.9249 25.9958 19.8576C25.9621 19.7884 25.8929 19.726 25.788 19.6706C25.6831 19.6132 25.5248 19.5627 25.313 19.5192C25.0755 19.4697 24.8697 19.4074 24.6955 19.3322C24.5234 19.255 24.3898 19.157 24.2948 19.0383C24.2018 18.9195 24.1552 18.7721 24.1552 18.596C24.1552 18.4258 24.2037 18.2704 24.3007 18.1299C24.3997 17.9874 24.5382 17.8736 24.7163 17.7885C24.8964 17.7014 25.1062 17.6579 25.3457 17.6579C25.6029 17.6579 25.8226 17.7034 26.0047 17.7944C26.1888 17.8835 26.3293 18.0042 26.4262 18.1566C26.5232 18.307 26.5717 18.4742 26.5717 18.6583H26.0166C26.0166 18.5257 25.9582 18.4 25.8414 18.2813C25.7266 18.1625 25.5614 18.1032 25.3457 18.1032C25.1953 18.1032 25.0726 18.1269 24.9776 18.1744C24.8845 18.2199 24.8163 18.2793 24.7727 18.3525C24.7312 18.4238 24.7104 18.499 24.7104 18.5781C24.7104 18.6573 24.7302 18.7266 24.7698 18.786C24.8093 18.8433 24.8816 18.8948 24.9865 18.9403C25.0933 18.9858 25.2477 19.0314 25.4496 19.0769C25.7128 19.1362 25.9295 19.2075 26.0997 19.2906C26.2699 19.3737 26.3966 19.4757 26.4797 19.5964C26.5628 19.7171 26.6044 19.8645 26.6044 20.0387C26.6044 20.2247 26.5529 20.39 26.45 20.5345C26.3471 20.677 26.2026 20.7888 26.0166 20.8699C25.8305 20.9491 25.6119 20.9887 25.3605 20.9887Z" fill="black"/>
<path d="M19.3995 20.9293H18.8444V17.7172H19.3698L19.3995 18.3555V20.9293ZM19.0284 19.1897C19.0304 18.8968 19.0799 18.6355 19.1768 18.406C19.2758 18.1744 19.4213 17.9923 19.6132 17.8597C19.8072 17.7252 20.0476 17.6579 20.3346 17.6579C20.6354 17.6579 20.8838 17.7459 21.0797 17.9221C21.2757 18.0982 21.3736 18.3872 21.3736 18.7889V20.9293H20.8185V18.8156C20.8185 18.6474 20.7898 18.5128 20.7324 18.4119C20.677 18.309 20.5978 18.2348 20.4949 18.1893C20.392 18.1418 20.2713 18.118 20.1327 18.118C19.9724 18.118 19.8379 18.1467 19.729 18.2041C19.6221 18.2615 19.536 18.3407 19.4707 18.4416C19.4054 18.5425 19.3579 18.6583 19.3282 18.7889C19.3005 18.9176 19.2867 19.0541 19.2867 19.1986L19.0284 19.1897ZM20.9966 19.0086C20.9986 18.7751 21.0481 18.5554 21.145 18.3496C21.244 18.1437 21.3885 17.9775 21.5785 17.8508C21.7685 17.7222 22 17.6579 22.2731 17.6579C22.5027 17.6579 22.6976 17.6984 22.8579 17.7796C23.0182 17.8607 23.14 17.9864 23.2231 18.1566C23.3062 18.3268 23.3478 18.5475 23.3478 18.8186V20.9293H22.7926V18.8127C22.7926 18.6326 22.7639 18.4921 22.7065 18.3911C22.6511 18.2902 22.572 18.2199 22.469 18.1804C22.3681 18.1388 22.2484 18.118 22.1098 18.118C21.9891 18.118 21.8822 18.1388 21.7892 18.1804C21.6982 18.2219 21.621 18.2793 21.5577 18.3525C21.4963 18.4238 21.4488 18.5059 21.4152 18.5989C21.3835 18.6919 21.3677 18.7909 21.3677 18.8958L20.9966 19.0086Z" fill="black"/>
<path d="M17.7489 17.7172H18.3159L17.1641 20.9293H16.7901L16.8761 20.4365L17.7489 17.7172ZM17.0483 20.4513L17.1136 20.9293H16.7426L15.5789 17.7172H16.1459L17.0483 20.4513Z" fill="black"/>
<path d="M14.6408 20.962C14.53 20.962 14.4449 20.9314 14.3855 20.87C14.3281 20.8087 14.2994 20.7325 14.2994 20.6414C14.2994 20.5484 14.3281 20.4702 14.3855 20.4069C14.4449 20.3416 14.53 20.309 14.6408 20.309C14.7536 20.309 14.8387 20.3416 14.8961 20.4069C14.9555 20.4702 14.9852 20.5484 14.9852 20.6414C14.9852 20.7325 14.9555 20.8087 14.8961 20.87C14.8387 20.9314 14.7536 20.962 14.6408 20.962Z" fill="black"/>
<path d="M11.7227 17.7172H12.0878L12.0165 18.2456L11.1764 20.9293H10.8232L10.8974 20.3534L11.7227 17.7172ZM11.0517 20.3831L11.0992 20.9293H10.7282L9.79602 17.7172H10.3482L11.0517 20.3831ZM13.5454 17.7172H14.0946L13.1624 20.9293H12.7943L12.8745 20.3652L13.5454 17.7172ZM12.9784 20.3118L13.0674 20.9293H12.7142L11.8503 18.2397L11.782 17.7172H12.1709L12.9784 20.3118Z" fill="black"/>
<path d="M7.151 17.7172H7.51614L7.44489 18.2456L6.60477 20.9293H6.25151L6.32572 20.3534L7.151 17.7172ZM6.48009 20.3831L6.52759 20.9293H6.15651L5.22437 17.7172H5.77653L6.48009 20.3831ZM8.97373 17.7172H9.52293L8.59078 20.9293H8.22267L8.30282 20.3652L8.97373 17.7172ZM8.40673 20.3118L8.49579 20.9293H8.14252L7.27865 18.2397L7.21037 17.7172H7.59926L8.40673 20.3118Z" fill="black"/>
<path d="M2.57922 17.7172H2.94436L2.87312 18.2456L2.033 20.9293H1.67973L1.75395 20.3534L2.57922 17.7172ZM1.90831 20.3831L1.95581 20.9293H1.58473L0.652588 17.7172H1.20475L1.90831 20.3831ZM4.40196 17.7172H4.95115L4.019 20.9293H3.65089L3.73105 20.3652L4.40196 17.7172ZM3.83495 20.3118L3.92401 20.9293H3.57074L2.70687 18.2397L2.6386 17.7172H3.02748L3.83495 20.3118Z" fill="black"/>
</svg>
