<svg width="161" height="40" viewBox="0 0 161 40" fill="none" xmlns="http://www.w3.org/2000/svg">
<path d="M154.679 34.4298H155.834L156.564 36.6054C156.588 36.6763 156.607 36.7472 156.621 36.818C156.64 36.8889 156.654 36.9621 156.663 37.0377C156.678 37.1133 156.687 37.1936 156.692 37.2787H156.713C156.727 37.1558 156.746 37.0401 156.77 36.9314C156.798 36.818 156.829 36.7094 156.862 36.6054L157.578 34.4298H158.711L157.074 38.7953C156.975 39.0598 156.845 39.2819 156.685 39.4614C156.529 39.6409 156.347 39.7756 156.139 39.8654C155.931 39.9551 155.704 40 155.459 40C155.341 40 155.237 39.9929 155.147 39.9788C155.062 39.9693 154.986 39.9575 154.92 39.9433V39.1071C154.972 39.1165 155.033 39.126 155.104 39.1354C155.18 39.1449 155.258 39.1496 155.338 39.1496C155.485 39.1496 155.61 39.1189 155.714 39.0575C155.822 38.996 155.912 38.911 155.983 38.8023C156.054 38.6984 156.111 38.585 156.153 38.4622L156.217 38.2708L154.679 34.4298Z" fill="black"/>
<path d="M152.771 34.3587C153.187 34.3587 153.52 34.4721 153.77 34.6989C154.021 34.9209 154.146 35.28 154.146 35.7761V38.299H153.09V36.0383C153.09 35.7595 153.04 35.5516 152.941 35.4146C152.842 35.2729 152.684 35.202 152.466 35.202C152.145 35.202 151.925 35.3131 151.807 35.5351C151.689 35.7524 151.63 36.0666 151.63 36.4777V38.299H150.574V34.4296H151.382L151.524 34.9256H151.58C151.665 34.7934 151.769 34.6871 151.892 34.6067C152.015 34.5217 152.152 34.4603 152.303 34.4225C152.454 34.38 152.61 34.3587 152.771 34.3587Z" fill="black"/>
<path d="M147.885 34.3517C148.405 34.3517 148.801 34.4651 149.075 34.6919C149.354 34.9139 149.494 35.2564 149.494 35.7194V38.2991H148.756L148.551 37.7746H148.523C148.414 37.9116 148.301 38.025 148.182 38.1148C148.069 38.2046 147.937 38.2683 147.786 38.3061C147.639 38.3487 147.457 38.3699 147.24 38.3699C147.013 38.3699 146.808 38.3274 146.623 38.2424C146.444 38.1526 146.302 38.0179 146.198 37.8384C146.094 37.6542 146.042 37.4226 146.042 37.1439C146.042 36.7329 146.186 36.4305 146.475 36.2368C146.763 36.0384 147.195 35.9297 147.771 35.9108L148.445 35.8895V35.7194C148.445 35.5163 148.39 35.3675 148.282 35.273C148.178 35.1785 148.031 35.1312 147.842 35.1312C147.653 35.1312 147.469 35.1596 147.29 35.2163C147.11 35.2683 146.93 35.3344 146.751 35.4147L146.404 34.6989C146.612 34.5903 146.841 34.5052 147.091 34.4438C147.346 34.3824 147.611 34.3517 147.885 34.3517ZM148.034 36.5203C147.693 36.5297 147.457 36.5911 147.325 36.7045C147.193 36.8179 147.127 36.9667 147.127 37.151C147.127 37.3116 147.174 37.4274 147.268 37.4982C147.363 37.5644 147.486 37.5975 147.637 37.5975C147.864 37.5975 148.055 37.5313 148.211 37.399C148.367 37.262 148.445 37.0707 148.445 36.825V36.5061L148.034 36.5203Z" fill="black"/>
<path d="M143.967 34.3587C144.402 34.3587 144.754 34.5288 145.023 34.8689C145.292 35.2044 145.427 35.7005 145.427 36.3572C145.427 36.7966 145.363 37.1674 145.235 37.4698C145.108 37.7675 144.933 37.9919 144.711 38.1431C144.489 38.2942 144.231 38.3698 143.939 38.3698C143.754 38.3698 143.594 38.3462 143.457 38.299C143.324 38.2517 143.211 38.1903 143.116 38.1147C143.022 38.0391 142.939 37.9588 142.868 37.8738H142.812C142.831 37.9635 142.845 38.058 142.854 38.1572C142.864 38.2517 142.868 38.3462 142.868 38.4407V39.9998H141.812V34.4296H142.67L142.819 34.9327H142.868C142.939 34.8288 143.024 34.7343 143.124 34.6493C143.223 34.5595 143.341 34.4886 143.478 34.4367C143.62 34.3847 143.783 34.3587 143.967 34.3587ZM143.627 35.202C143.442 35.202 143.296 35.2398 143.187 35.3154C143.079 35.391 142.998 35.5068 142.946 35.6627C142.899 35.8139 142.873 36.0052 142.868 36.2367V36.3501C142.868 36.6005 142.892 36.8131 142.939 36.9879C142.987 37.158 143.067 37.2879 143.18 37.3777C143.294 37.4674 143.447 37.5123 143.641 37.5123C143.802 37.5123 143.934 37.4674 144.038 37.3777C144.142 37.2879 144.22 37.1556 144.272 36.9808C144.324 36.806 144.35 36.5934 144.35 36.343C144.35 35.965 144.291 35.6816 144.172 35.4926C144.059 35.2989 143.877 35.202 143.627 35.202Z" fill="black"/>
<path d="M139.393 34.3587C139.832 34.3587 140.163 34.4721 140.385 34.6989C140.612 34.9209 140.725 35.28 140.725 35.7761V38.299H139.669V36.0383C139.669 35.7595 139.622 35.5516 139.527 35.4146C139.433 35.2729 139.286 35.202 139.088 35.202C138.809 35.202 138.611 35.3012 138.493 35.4997C138.375 35.6981 138.316 35.9839 138.316 36.3572V38.299H137.26V36.0383C137.26 35.854 137.238 35.7005 137.196 35.5776C137.153 35.4548 137.09 35.3627 137.004 35.3012C136.919 35.2351 136.811 35.202 136.678 35.202C136.485 35.202 136.331 35.2516 136.218 35.3509C136.104 35.4501 136.024 35.5942 135.977 35.7831C135.93 35.9721 135.906 36.2036 135.906 36.4777V38.299H134.85V34.4296H135.658L135.8 34.9256H135.856C135.937 34.7934 136.036 34.6871 136.154 34.6067C136.272 34.5217 136.402 34.4603 136.544 34.4225C136.69 34.38 136.837 34.3587 136.983 34.3587C137.267 34.3587 137.508 34.4059 137.706 34.5004C137.905 34.5902 138.056 34.7319 138.16 34.9256H138.252C138.37 34.7272 138.533 34.5831 138.741 34.4933C138.953 34.4036 139.171 34.3587 139.393 34.3587Z" fill="black"/>
<path d="M133.978 36.3572C133.978 36.6784 133.933 36.9643 133.843 37.2147C133.758 37.4651 133.633 37.6777 133.467 37.8525C133.307 38.0226 133.111 38.1525 132.879 38.2423C132.648 38.3273 132.386 38.3698 132.093 38.3698C131.823 38.3698 131.573 38.3273 131.341 38.2423C131.115 38.1525 130.919 38.0226 130.753 37.8525C130.588 37.6777 130.458 37.4651 130.363 37.2147C130.274 36.9643 130.229 36.6784 130.229 36.3572C130.229 35.9272 130.304 35.5658 130.456 35.2729C130.607 34.9752 130.824 34.7485 131.108 34.5926C131.391 34.4367 131.726 34.3587 132.114 34.3587C132.478 34.3587 132.799 34.4367 133.078 34.5926C133.356 34.7485 133.576 34.9752 133.737 35.2729C133.897 35.5658 133.978 35.9272 133.978 36.3572ZM131.306 36.3572C131.306 36.6123 131.332 36.8273 131.384 37.0021C131.441 37.1722 131.528 37.3021 131.646 37.3919C131.764 37.4769 131.918 37.5194 132.107 37.5194C132.296 37.5194 132.447 37.4769 132.56 37.3919C132.678 37.3021 132.763 37.1722 132.815 37.0021C132.872 36.8273 132.9 36.6123 132.9 36.3572C132.9 36.1021 132.872 35.8894 132.815 35.7194C132.763 35.5493 132.678 35.4217 132.56 35.3367C132.442 35.2516 132.289 35.2091 132.1 35.2091C131.821 35.2091 131.618 35.306 131.49 35.4997C131.367 35.6887 131.306 35.9745 131.306 36.3572Z" fill="black"/>
<path d="M128.183 34.0612C127.98 34.0612 127.798 34.1014 127.637 34.1817C127.481 34.262 127.349 34.3778 127.24 34.529C127.132 34.6754 127.049 34.855 126.992 35.0676C126.94 35.2802 126.914 35.5188 126.914 35.7833C126.914 36.1424 126.957 36.4495 127.042 36.7046C127.132 36.955 127.271 37.1464 127.46 37.2786C127.649 37.4109 127.89 37.4771 128.183 37.4771C128.391 37.4771 128.596 37.4535 128.799 37.4062C129.007 37.359 129.232 37.2928 129.473 37.2078V38.1078C129.251 38.1976 129.031 38.2637 128.814 38.3062C128.596 38.3488 128.353 38.37 128.084 38.37C127.564 38.37 127.134 38.2637 126.794 38.0511C126.458 37.8338 126.21 37.5314 126.05 37.144C125.889 36.7519 125.809 36.2959 125.809 35.7762C125.809 35.3936 125.861 35.0439 125.965 34.7274C126.069 34.4061 126.22 34.1297 126.418 33.8982C126.621 33.6667 126.869 33.4872 127.162 33.3596C127.46 33.2321 127.8 33.1683 128.183 33.1683C128.433 33.1683 128.684 33.2014 128.934 33.2675C129.189 33.3289 129.432 33.414 129.664 33.5226L129.317 34.3943C129.128 34.3045 128.936 34.2266 128.743 34.1604C128.554 34.0943 128.367 34.0612 128.183 34.0612Z" fill="black"/>
<path d="M121.385 34.3587C121.744 34.3587 122.051 34.4272 122.307 34.5642C122.566 34.7012 122.767 34.8997 122.909 35.1595C123.051 35.4194 123.122 35.7383 123.122 36.1162V36.6265H120.627C120.636 36.9241 120.724 37.158 120.889 37.3281C121.059 37.4982 121.293 37.5832 121.591 37.5832C121.841 37.5832 122.068 37.5596 122.271 37.5123C122.474 37.4604 122.685 37.3824 122.902 37.2785V38.0934C122.713 38.1879 122.512 38.2564 122.299 38.299C122.092 38.3462 121.839 38.3698 121.541 38.3698C121.154 38.3698 120.811 38.299 120.514 38.1572C120.216 38.0108 119.982 37.7911 119.812 37.4982C119.642 37.2052 119.557 36.8367 119.557 36.3926C119.557 35.9391 119.632 35.5635 119.784 35.2658C119.94 34.9634 120.155 34.7367 120.429 34.5855C120.703 34.4343 121.021 34.3587 121.385 34.3587ZM121.392 35.1099C121.189 35.1099 121.019 35.176 120.882 35.3083C120.75 35.4406 120.672 35.6461 120.648 35.9249H122.129C122.129 35.769 122.101 35.6296 122.044 35.5068C121.992 35.3839 121.912 35.2871 121.803 35.2162C121.695 35.1453 121.558 35.1099 121.392 35.1099Z" fill="black"/>
<path d="M117.724 38.3698C117.341 38.3698 117.015 38.3013 116.746 38.1643C116.476 38.0226 116.271 37.8053 116.129 37.5123C115.987 37.2194 115.917 36.8438 115.917 36.3855C115.917 35.9131 115.997 35.528 116.157 35.2304C116.318 34.9327 116.54 34.713 116.824 34.5713C117.112 34.4296 117.443 34.3587 117.816 34.3587C118.08 34.3587 118.309 34.3847 118.503 34.4367C118.702 34.4886 118.874 34.55 119.021 34.6209L118.709 35.4359C118.543 35.3697 118.387 35.3154 118.241 35.2729C118.099 35.2304 117.958 35.2091 117.816 35.2091C117.632 35.2091 117.478 35.254 117.355 35.3438C117.232 35.4288 117.14 35.5587 117.079 35.7335C117.022 35.9036 116.994 36.1186 116.994 36.3784C116.994 36.6336 117.024 36.8462 117.086 37.0163C117.152 37.1816 117.246 37.3068 117.369 37.3919C117.492 37.4722 117.641 37.5123 117.816 37.5123C118.038 37.5123 118.234 37.484 118.404 37.4273C118.574 37.3659 118.739 37.2832 118.9 37.1793V38.0793C118.739 38.1832 118.569 38.2564 118.39 38.299C118.215 38.3462 117.993 38.3698 117.724 38.3698Z" fill="black"/>
<path d="M113.69 34.3587C114.105 34.3587 114.438 34.4721 114.689 34.6989C114.939 34.9209 115.064 35.28 115.064 35.7761V38.299H114.008V36.0383C114.008 35.7595 113.959 35.5516 113.86 35.4146C113.76 35.2729 113.602 35.202 113.385 35.202C113.064 35.202 112.844 35.3131 112.726 35.5351C112.608 35.7524 112.549 36.0666 112.549 36.4777V38.299H111.493V34.4296H112.301L112.442 34.9256H112.499C112.584 34.7934 112.688 34.6871 112.811 34.6067C112.934 34.5217 113.071 34.4603 113.222 34.4225C113.373 34.38 113.529 34.3587 113.69 34.3587Z" fill="black"/>
<path d="M108.803 34.3517C109.323 34.3517 109.72 34.4651 109.994 34.6919C110.273 34.9139 110.412 35.2564 110.412 35.7194V38.2991H109.675L109.469 37.7746H109.441C109.332 37.9116 109.219 38.025 109.101 38.1148C108.988 38.2046 108.855 38.2683 108.704 38.3061C108.558 38.3487 108.376 38.3699 108.158 38.3699C107.932 38.3699 107.726 38.3274 107.542 38.2424C107.362 38.1526 107.221 38.0179 107.117 37.8384C107.013 37.6542 106.961 37.4226 106.961 37.1439C106.961 36.7329 107.105 36.4305 107.393 36.2368C107.681 36.0384 108.113 35.9297 108.69 35.9108L109.363 35.8895V35.7194C109.363 35.5163 109.309 35.3675 109.2 35.273C109.096 35.1785 108.95 35.1312 108.761 35.1312C108.572 35.1312 108.388 35.1596 108.208 35.2163C108.028 35.2683 107.849 35.3344 107.669 35.4147L107.322 34.6989C107.53 34.5903 107.759 34.5052 108.01 34.4438C108.265 34.3824 108.529 34.3517 108.803 34.3517ZM108.952 36.5203C108.612 36.5297 108.376 36.5911 108.243 36.7045C108.111 36.8179 108.045 36.9667 108.045 37.151C108.045 37.3116 108.092 37.4274 108.187 37.4982C108.281 37.5644 108.404 37.5975 108.555 37.5975C108.782 37.5975 108.973 37.5313 109.129 37.399C109.285 37.262 109.363 37.0707 109.363 36.825V36.5061L108.952 36.5203Z" fill="black"/>
<path d="M104.796 34.3587C105.235 34.3587 105.566 34.4721 105.788 34.6989C106.015 34.9209 106.128 35.28 106.128 35.7761V38.299H105.072V36.0383C105.072 35.7595 105.025 35.5516 104.931 35.4146C104.836 35.2729 104.69 35.202 104.491 35.202C104.213 35.202 104.014 35.3012 103.896 35.4997C103.778 35.6981 103.719 35.9839 103.719 36.3572V38.299H102.663V36.0383C102.663 35.854 102.642 35.7005 102.599 35.5776C102.557 35.4548 102.493 35.3627 102.408 35.3012C102.323 35.2351 102.214 35.202 102.082 35.202C101.888 35.202 101.735 35.2516 101.621 35.3509C101.508 35.4501 101.427 35.5942 101.38 35.7831C101.333 35.9721 101.309 36.2036 101.309 36.4777V38.299H100.253V34.4296H101.061L101.203 34.9256H101.26C101.34 34.7934 101.439 34.6871 101.557 34.6067C101.676 34.5217 101.805 34.4603 101.947 34.4225C102.094 34.38 102.24 34.3587 102.387 34.3587C102.67 34.3587 102.911 34.4059 103.109 34.5004C103.308 34.5902 103.459 34.7319 103.563 34.9256H103.655C103.773 34.7272 103.936 34.5831 104.144 34.4933C104.357 34.4036 104.574 34.3587 104.796 34.3587Z" fill="black"/>
<path d="M99.1971 34.3587C99.2491 34.3587 99.3105 34.3611 99.3814 34.3658C99.4523 34.3705 99.5089 34.3776 99.5515 34.387L99.4735 35.3792C99.4404 35.3697 99.3908 35.3627 99.3247 35.3579C99.2633 35.3485 99.2089 35.3438 99.1617 35.3438C99.0247 35.3438 98.8924 35.3627 98.7648 35.4005C98.6373 35.4335 98.5215 35.4879 98.4176 35.5635C98.3184 35.639 98.238 35.7406 98.1766 35.8682C98.1199 35.991 98.0916 36.1446 98.0916 36.3288V38.299H97.0356V34.4296H97.8365L97.9924 35.0816H98.042C98.1176 34.9493 98.2121 34.8288 98.3254 34.7201C98.4388 34.6115 98.5688 34.5241 98.7152 34.4579C98.8664 34.3918 99.027 34.3587 99.1971 34.3587Z" fill="black"/>
<path d="M96.1629 36.3572C96.1629 36.6784 96.118 36.9643 96.0282 37.2147C95.9432 37.4651 95.818 37.6777 95.6526 37.8525C95.492 38.0226 95.2959 38.1525 95.0644 38.2423C94.8329 38.3273 94.5707 38.3698 94.2778 38.3698C94.0085 38.3698 93.7581 38.3273 93.5266 38.2423C93.2998 38.1525 93.1037 38.0226 92.9384 37.8525C92.773 37.6777 92.6431 37.4651 92.5486 37.2147C92.4588 36.9643 92.4139 36.6784 92.4139 36.3572C92.4139 35.9272 92.4895 35.5658 92.6407 35.2729C92.7919 34.9752 93.0092 34.7485 93.2927 34.5926C93.5762 34.4367 93.9116 34.3587 94.299 34.3587C94.6628 34.3587 94.9841 34.4367 95.2628 34.5926C95.5416 34.7485 95.7613 34.9752 95.9219 35.2729C96.0826 35.5658 96.1629 35.9272 96.1629 36.3572ZM93.4911 36.3572C93.4911 36.6123 93.5171 36.8273 93.5691 37.0021C93.6258 37.1722 93.7132 37.3021 93.8313 37.3919C93.9494 37.4769 94.103 37.5194 94.2919 37.5194C94.4809 37.5194 94.6321 37.4769 94.7455 37.3919C94.8636 37.3021 94.9487 37.1722 95.0006 37.0021C95.0573 36.8273 95.0857 36.6123 95.0857 36.3572C95.0857 36.1021 95.0573 35.8894 95.0006 35.7194C94.9487 35.5493 94.8636 35.4217 94.7455 35.3367C94.6274 35.2516 94.4738 35.2091 94.2849 35.2091C94.0061 35.2091 93.803 35.306 93.6754 35.4997C93.5526 35.6887 93.4911 35.9745 93.4911 36.3572Z" fill="black"/>
<path d="M92.0475 35.2236H91.1333V38.2992H90.0773V35.2236H89.4962V34.7133L90.0773 34.4298V34.1464C90.0773 33.8156 90.1317 33.5605 90.2403 33.381C90.3537 33.1967 90.512 33.0668 90.7151 32.9912C90.923 32.9156 91.1663 32.8778 91.4451 32.8778C91.653 32.8778 91.8396 32.8944 92.005 32.9274C92.175 32.9605 92.312 32.9983 92.416 33.0408L92.1467 33.8133C92.0664 33.7897 91.979 33.7684 91.8845 33.7495C91.79 33.7259 91.6813 33.7141 91.5585 33.7141C91.412 33.7141 91.3034 33.759 91.2325 33.8487C91.1663 33.9385 91.1333 34.0519 91.1333 34.1889V34.4298H92.0475V35.2236Z" fill="black"/>
<path d="M88.8504 34.3587C88.9024 34.3587 88.9638 34.3611 89.0347 34.3658C89.1056 34.3705 89.1623 34.3776 89.2048 34.387L89.1268 35.3792C89.0938 35.3697 89.0442 35.3627 88.978 35.3579C88.9166 35.3485 88.8623 35.3438 88.815 35.3438C88.678 35.3438 88.5457 35.3627 88.4182 35.4005C88.2906 35.4335 88.1748 35.4879 88.0709 35.5635C87.9717 35.639 87.8914 35.7406 87.8299 35.8682C87.7732 35.991 87.7449 36.1446 87.7449 36.3288V38.299H86.689V34.4296H87.4898L87.6457 35.0816H87.6953C87.7709 34.9493 87.8654 34.8288 87.9788 34.7201C88.0922 34.6115 88.2221 34.5241 88.3685 34.4579C88.5197 34.3918 88.6804 34.3587 88.8504 34.3587Z" fill="black"/>
<path d="M84.0967 34.3587C84.4558 34.3587 84.7629 34.4272 85.018 34.5642C85.2778 34.7012 85.4786 34.8997 85.6204 35.1595C85.7621 35.4194 85.833 35.7383 85.833 36.1162V36.6265H83.3384C83.3479 36.9241 83.4353 37.158 83.6006 37.3281C83.7707 37.4982 84.0046 37.5832 84.3022 37.5832C84.5526 37.5832 84.7794 37.5596 84.9826 37.5123C85.1857 37.4604 85.396 37.3824 85.6133 37.2785V38.0934C85.4243 38.1879 85.2235 38.2564 85.0109 38.299C84.803 38.3462 84.5503 38.3698 84.2526 38.3698C83.8652 38.3698 83.5227 38.299 83.225 38.1572C82.9274 38.0108 82.6935 37.7911 82.5234 37.4982C82.3534 37.2052 82.2683 36.8367 82.2683 36.3926C82.2683 35.9391 82.3439 35.5635 82.4951 35.2658C82.651 34.9634 82.866 34.7367 83.14 34.5855C83.414 34.4343 83.7329 34.3587 84.0967 34.3587ZM84.1038 35.1099C83.9006 35.1099 83.7306 35.176 83.5935 35.3083C83.4613 35.4406 83.3833 35.6461 83.3597 35.9249H84.8408C84.8408 35.769 84.8125 35.6296 84.7558 35.5068C84.7038 35.3839 84.6235 35.2871 84.5148 35.2162C84.4062 35.1453 84.2692 35.1099 84.1038 35.1099Z" fill="black"/>
<path d="M80.1717 34.3587C80.6064 34.3587 80.9584 34.5288 81.2277 34.8689C81.497 35.2044 81.6316 35.7005 81.6316 36.3572C81.6316 36.7966 81.5678 37.1674 81.4403 37.4698C81.3127 37.7675 81.1379 37.9919 80.9158 38.1431C80.6938 38.2942 80.4363 38.3698 80.1434 38.3698C79.9591 38.3698 79.7985 38.3462 79.6615 38.299C79.5292 38.2517 79.4158 38.1903 79.3213 38.1147C79.2268 38.0391 79.1441 37.9588 79.0733 37.8738H79.0166C79.0355 37.9635 79.0496 38.058 79.0591 38.1572C79.0685 38.2517 79.0733 38.3462 79.0733 38.4407V39.9998H78.0173V34.4296H78.8748L79.0237 34.9327H79.0733C79.1441 34.8288 79.2292 34.7343 79.3284 34.6493C79.4276 34.5595 79.5457 34.4886 79.6827 34.4367C79.8245 34.3847 79.9875 34.3587 80.1717 34.3587ZM79.8316 35.202C79.6473 35.202 79.5008 35.2398 79.3922 35.3154C79.2835 35.391 79.2032 35.5068 79.1512 35.6627C79.104 35.8139 79.078 36.0052 79.0733 36.2367V36.3501C79.0733 36.6005 79.0969 36.8131 79.1441 36.9879C79.1914 37.158 79.2717 37.2879 79.3851 37.3777C79.4985 37.4674 79.652 37.5123 79.8457 37.5123C80.0064 37.5123 80.1387 37.4674 80.2426 37.3777C80.3465 37.2879 80.4245 37.1556 80.4765 36.9808C80.5284 36.806 80.5544 36.5934 80.5544 36.343C80.5544 35.965 80.4954 35.6816 80.3772 35.4926C80.2639 35.2989 80.082 35.202 79.8316 35.202Z" fill="black"/>
<path d="M75.4248 34.3587C75.7839 34.3587 76.091 34.4272 76.3461 34.5642C76.606 34.7012 76.8068 34.8997 76.9485 35.1595C77.0902 35.4194 77.1611 35.7383 77.1611 36.1162V36.6265H74.6665C74.676 36.9241 74.7634 37.158 74.9288 37.3281C75.0988 37.4982 75.3327 37.5832 75.6304 37.5832C75.8808 37.5832 76.1075 37.5596 76.3107 37.5123C76.5138 37.4604 76.7241 37.3824 76.9414 37.2785V38.0934C76.7524 38.1879 76.5516 38.2564 76.339 38.299C76.1312 38.3462 75.8784 38.3698 75.5807 38.3698C75.1933 38.3698 74.8508 38.299 74.5532 38.1572C74.2555 38.0108 74.0216 37.7911 73.8516 37.4982C73.6815 37.2052 73.5964 36.8367 73.5964 36.3926C73.5964 35.9391 73.672 35.5635 73.8232 35.2658C73.9791 34.9634 74.1941 34.7367 74.4681 34.5855C74.7421 34.4343 75.061 34.3587 75.4248 34.3587ZM75.4319 35.1099C75.2288 35.1099 75.0587 35.176 74.9217 35.3083C74.7894 35.4406 74.7114 35.6461 74.6878 35.9249H76.169C76.169 35.769 76.1406 35.6296 76.0839 35.5068C76.0319 35.3839 75.9516 35.2871 75.843 35.2162C75.7343 35.1453 75.5973 35.1099 75.4319 35.1099Z" fill="black"/>
<path d="M72.7271 38.299H71.6711V32.913H72.7271V38.299Z" fill="black"/>
<path d="M69.0783 34.3587C69.4373 34.3587 69.7444 34.4272 69.9996 34.5642C70.2594 34.7012 70.4602 34.8997 70.6019 35.1595C70.7437 35.4194 70.8145 35.7383 70.8145 36.1162V36.6265H68.32C68.3294 36.9241 68.4168 37.158 68.5822 37.3281C68.7523 37.4982 68.9861 37.5832 69.2838 37.5832C69.5342 37.5832 69.761 37.5596 69.9641 37.5123C70.1673 37.4604 70.3775 37.3824 70.5949 37.2785V38.0934C70.4059 38.1879 70.2051 38.2564 69.9925 38.299C69.7846 38.3462 69.5318 38.3698 69.2342 38.3698C68.8468 38.3698 68.5042 38.299 68.2066 38.1572C67.909 38.0108 67.6751 37.7911 67.505 37.4982C67.3349 37.2052 67.2499 36.8367 67.2499 36.3926C67.2499 35.9391 67.3255 35.5635 67.4767 35.2658C67.6326 34.9634 67.8475 34.7367 68.1216 34.5855C68.3956 34.4343 68.7145 34.3587 69.0783 34.3587ZM69.0854 35.1099C68.8822 35.1099 68.7121 35.176 68.5751 35.3083C68.4428 35.4406 68.3649 35.6461 68.3412 35.9249H69.8224C69.8224 35.769 69.794 35.6296 69.7374 35.5068C69.6854 35.3839 69.6051 35.2871 69.4964 35.2162C69.3877 35.1453 69.2507 35.1099 69.0854 35.1099Z" fill="black"/>
<path d="M65.9121 38.2992H64.842V34.1322H63.4672V33.2392H67.287V34.1322H65.9121V38.2992Z" fill="black"/>
<path d="M60.1947 38.2992L59.8262 37.0944H57.9836L57.6151 38.2992H56.46L58.2458 33.2179H59.5569L61.3499 38.2992H60.1947ZM59.2026 35.018C59.1789 34.9377 59.1482 34.8361 59.1104 34.7132C59.0726 34.5904 59.0348 34.4652 58.997 34.3376C58.9592 34.2101 58.9285 34.0991 58.9049 34.0046C58.8813 34.0991 58.8482 34.2172 58.8057 34.3589C58.7679 34.4959 58.7301 34.6282 58.6923 34.7558C58.6592 34.8786 58.6333 34.966 58.6144 35.018L58.2529 36.1944H59.5711L59.2026 35.018Z" fill="black"/>
<path fill-rule="evenodd" clip-rule="evenodd" d="M0.828619 1.83835C0.825076 3.51191 2.415 3.31206 2.66233 3.30922C2.9047 3.30639 7.48243 3.31064 7.48243 3.31064L7.59441 23.1094C7.59441 23.1094 7.91756 24.5463 9.58403 24.5594C11.4376 24.5739 11.6105 23.2969 11.6105 23.2969L11.867 3.42545L17.3544 3.34855C17.3544 3.34855 18.3168 3.10335 18.2813 1.76642C18.2462 0.429494 17.3452 0.334885 17.3452 0.334885L2.17193 0.338428C2.17193 0.338428 0.831808 0.291301 0.828619 1.83835Z" fill="#2A3486"/>
<path fill-rule="evenodd" clip-rule="evenodd" d="M22.6775 0.254716C24.963 0.250464 24.7238 1.7713 24.7238 1.7713L24.7496 17.1068C24.7496 17.1068 24.7791 18.4246 25.779 19.6875C26.7988 20.9755 28.0542 21.2073 28.6913 21.2526C29.3288 21.2976 34.3867 21.4067 34.3867 21.4067C34.3867 21.4067 35.3675 21.3887 35.321 22.9499C35.2785 24.3832 34.4643 24.3818 34.4643 24.3818L26.9161 24.4721C26.9161 24.4721 25.3035 24.7698 22.8964 23.0048C20.8012 21.4684 20.7938 18.297 20.7938 18.297L20.5688 1.8489C20.5688 1.8489 20.5305 0.258968 22.6775 0.254716Z" fill="#2A3486"/>
<path fill-rule="evenodd" clip-rule="evenodd" d="M52.5783 1.81659C52.6024 3.07308 51.6733 3.62373 50.8778 3.40651C49.8931 3.13757 48.075 2.87252 46.5726 2.91859C45.0702 2.96465 41.2798 2.63653 41.217 6.18384C41.1685 8.93565 44.9266 9.66241 46.4779 10.234C49.1139 11.2052 53.0396 12.5237 53.0435 17.3998C53.0474 22.0891 50.4505 24.2531 47.5597 24.5678C43.5086 25.0089 37.7314 24.3814 37.7314 24.3814C37.7314 24.3814 36.7428 24.1029 36.8204 22.9293C36.9097 21.5768 38.2824 21.4999 38.2824 21.4999C38.2824 21.4999 44.3774 22.0339 45.4202 21.8691C46.3957 21.7146 49.0398 21.5187 49.1674 18.3668C49.2957 15.1965 46.6792 14.2245 44.2548 13.3876C41.8889 12.5712 37.0082 11.0638 37.1623 6.54952C37.3165 2.03521 40.3624 0.0842132 45.7686 0.00590386C49.7832 -0.0522081 52.5489 0.300716 52.5783 1.81659Z" fill="#2A3486"/>
<path fill-rule="evenodd" clip-rule="evenodd" d="M56.286 15.7306C56.3317 19.9827 56.9745 21.5549 58.3369 22.9996C59.5945 24.3326 61.6259 24.9361 64.3391 24.9825C67.2617 25.0324 68.587 24.851 68.6019 23.8939C68.6167 22.9365 67.767 22.8752 65.5513 23.1356C63.4915 23.3773 61.5675 22.7034 60.7996 22.0737C60.0775 21.4816 58.7529 21.9036 58.7413 15.7282C58.7331 11.5831 59.1728 10.6916 60.4772 9.39466C61.3209 8.55594 63.2006 7.82812 65.124 8.03825C67.7869 8.32916 68.7425 8.57826 68.7514 7.56343C68.7599 6.5493 66.4035 6.3002 64.602 6.19213C62.8002 6.08405 60.0367 6.82392 58.8206 7.85257C57.6024 8.88299 56.2268 10.2653 56.286 15.7306Z" fill="#D9642C"/>
<path fill-rule="evenodd" clip-rule="evenodd" d="M136.956 15.7306C137.002 19.9827 137.645 21.5549 139.007 22.9996C140.265 24.3326 142.296 24.9361 145.009 24.9825C147.932 25.0324 149.257 24.851 149.272 23.8939C149.287 22.9365 148.437 22.8752 146.221 23.1356C144.162 23.3773 142.238 22.7034 141.47 22.0737C140.748 21.4816 139.423 21.9036 139.411 15.7282C139.403 11.5831 139.843 10.6916 141.147 9.39466C141.991 8.55594 143.871 7.82812 145.794 8.03825C148.457 8.32916 149.413 8.57826 149.422 7.56343C149.43 6.5493 147.074 6.3002 145.272 6.19213C143.47 6.08405 140.707 6.82392 139.491 7.85257C138.273 8.88299 136.897 10.2653 136.956 15.7306Z" fill="#D9642C"/>
<path fill-rule="evenodd" clip-rule="evenodd" d="M71.6559 15.5927C71.8533 22.6253 74.5445 24.8825 79.6842 24.8595C83.9824 24.8407 87.4843 22.0818 87.3199 15.8319C87.1343 8.76211 83.9533 6.37881 79.3721 6.40185C75.2458 6.4224 71.4504 8.27595 71.6559 15.5927ZM79.3386 8.13725C82.943 8.13194 84.7476 10.3097 84.9255 15.566C85.1115 21.0686 83.1903 23.0915 79.57 23.2052C76.6173 23.2981 74.3693 22.2946 73.9668 16.0763C73.5625 9.82391 76.1364 8.14186 79.3386 8.13725Z" fill="#D9642C"/>
<path fill-rule="evenodd" clip-rule="evenodd" d="M91.406 23.0703L91.3978 8.39422C91.3978 8.39422 92.2553 7.2947 94.8034 6.76885C98.648 5.97548 101.935 6.20226 103.828 7.99558C105.283 9.37291 105.296 11.3639 105.296 11.3639L105.289 23.183C105.289 23.183 105.469 24.4657 104.392 24.4912C103.112 24.522 103.144 23.1862 103.144 23.1862L103.168 12.1814C103.168 12.1814 103.175 10.6329 102.327 9.76658C100.211 7.60191 98.3833 8.29748 96.9486 8.31768C95.8434 8.33327 93.6394 9.2659 93.6394 9.2659L93.6171 23.1858C93.6171 23.1858 93.768 24.4359 92.7082 24.4855C91.2355 24.5546 91.406 23.0703 91.406 23.0703Z" fill="#D9642C"/>
<path fill-rule="evenodd" clip-rule="evenodd" d="M111.548 2.7861C112.814 2.79957 112.668 3.70491 112.668 3.70491L112.661 6.61227L115.795 6.6144C115.795 6.6144 116.716 6.50739 116.729 7.5938C116.741 8.60757 115.839 8.49843 115.839 8.49843L112.623 8.51296L112.603 20.1541C112.603 20.1541 112.692 21.687 113.451 22.289C114.433 23.0679 116.144 22.7121 116.144 22.7121C116.144 22.7121 117.354 22.3719 117.315 23.4452C117.284 24.2794 116.432 24.4686 116.432 24.4686C116.432 24.4686 116.178 24.5515 114.68 24.5437C113.181 24.5363 111.984 24.2347 111.364 23.3634C110.348 21.9361 110.488 20.3086 110.488 20.3086L110.474 8.44138L109.016 8.42048C109.016 8.42048 108.288 8.45626 108.349 7.44852C108.402 6.57401 109.075 6.5942 109.075 6.5942L110.441 6.56373L110.476 3.72262C110.476 3.72262 110.409 2.7737 111.548 2.7861Z" fill="#D9642C"/>
<path fill-rule="evenodd" clip-rule="evenodd" d="M154.635 2.7861C155.901 2.79957 155.756 3.70491 155.756 3.70491L155.748 6.61227L158.882 6.6144C158.882 6.6144 159.804 6.50739 159.816 7.5938C159.828 8.60757 158.927 8.49843 158.927 8.49843L155.71 8.51296L155.691 20.1541C155.691 20.1541 155.779 21.687 156.539 22.289C157.521 23.0679 159.232 22.7121 159.232 22.7121C159.232 22.7121 160.441 22.3719 160.402 23.4452C160.372 24.2794 159.519 24.4686 159.519 24.4686C159.519 24.4686 159.266 24.5515 157.767 24.5437C156.268 24.5363 155.071 24.2347 154.451 23.3634C153.435 21.9361 153.575 20.3086 153.575 20.3086L153.562 8.44138L152.103 8.42048C152.103 8.42048 151.376 8.45626 151.437 7.44852C151.489 6.57401 152.163 6.5942 152.163 6.5942L153.529 6.56373L153.563 3.72262C153.563 3.72262 153.496 2.7737 154.635 2.7861Z" fill="#D9642C"/>
<path fill-rule="evenodd" clip-rule="evenodd" d="M120.435 8.0818C120.705 9.00096 121.969 8.61579 121.969 8.61579C121.969 8.61579 123.404 8.41169 124.973 8.16649C126.159 7.98152 128.472 8.26216 128.973 8.51516C130.587 9.32944 130.723 10.9612 130.723 10.9612L130.724 15.0467C130.724 15.0467 127.421 14.4376 125.829 14.2881C122.934 14.016 121.463 15.1084 120.422 15.8242C119.381 16.5399 117.921 20.1411 119.718 22.4071C121.235 24.3202 123.496 25.2517 126.538 25.0565C129.58 24.8613 133.039 23.8284 133.039 23.8284L132.824 10.9243C132.824 10.9243 133.264 7.91101 129.848 6.65664C126.433 5.40263 121.873 6.56381 121.873 6.56381C121.873 6.56381 120.128 7.03685 120.435 8.0818ZM121.34 19.5673C121.363 22.2021 122.823 23.0901 125.256 23.2446C127.688 23.3988 130.72 22.7425 130.72 22.7425L130.717 16.5752C130.717 16.5752 128.531 15.8084 125.611 15.981C122.692 16.1539 121.32 17.235 121.34 19.5673Z" fill="#D9642C"/>
</svg>
