<svg width="124" height="40" viewBox="0 0 124 40" fill="none" xmlns="http://www.w3.org/2000/svg">
<path fill-rule="evenodd" clip-rule="evenodd" d="M9.86691 18.3246C9.81358 16.7557 12.4859 18.1075 12.9842 17.8694C12.6382 18.7017 11.8227 20.4414 12.0553 22.2918C12.2453 23.8039 12.6711 26.5265 14.1438 26.5021C15.9407 26.4723 18.5703 20.5782 18.9638 19.4132C19.4515 19.5534 21.0734 19.6748 21.5363 19.4565C21.0355 21.7757 19.9371 28.0496 19.2336 28.508C18.748 28.8244 18.4703 28.5155 18.2815 28.0186C18.0927 27.5217 17.3857 27.3123 16.9075 27.7419C16.2898 28.2965 16.6021 29.7484 18.2521 29.7344C19.6788 29.7223 21.2886 29.3811 23.1248 19.2586C23.9675 18.8782 25.4869 18.1198 26.1446 17.6461C26.0078 17.8665 25.6896 20.0951 26.8561 21.5255C27.7821 22.6611 28.5628 24.394 27.7019 24.9432C26.9461 25.4255 26.1705 24.9169 25.964 23.9869C25.7578 23.0567 24.0182 23.4567 24.4996 24.9792C24.988 26.5223 27.2007 26.4384 28.2148 25.7138C29.229 24.989 29.8644 23.0555 28.9361 21.2544C28.039 19.5136 26.8734 19.094 27.228 17.8276C27.685 16.1951 30.0786 16.3592 29.7373 16.8482C28.7709 18.233 29.7146 19.0103 30.5425 18.7178C31.3707 18.4253 31.9163 16.9717 30.6436 16.2048C29.3709 15.438 27.6661 14.9169 23.5986 17.1755C24.1403 12.2394 25.47 10.4876 25.7198 11.5282C25.9988 12.6909 26.9838 12.7911 27.3321 12.1332C27.7328 11.3767 27.3888 10.6538 26.833 10.3605C26.049 9.94651 24.6544 10.358 23.6609 11.8417C22.2665 13.9242 22.0338 16.3684 21.8803 17.9346C21.1428 18.4296 19.9769 18.6296 19.1821 18.518C19.6671 17.6357 19.2907 16.0773 18.0753 16.2534C16.9321 16.419 16.6584 18.5832 18.1148 19.2207C17.5469 20.8113 16.2484 23.2994 15.014 25.0621C13.8659 26.2146 13.8136 22.393 13.9007 20.3119C13.9521 19.0819 14.7998 16.9269 14.7857 16.9211C13.7627 16.5171 12.803 15.7888 10.8967 16.173C9.78004 16.3982 8.97379 17.1982 8.76233 18.474C8.4667 20.2582 9.879 20.3113 10.2165 20.0203C10.673 19.6267 10.7586 18.5876 9.86691 18.3246Z" fill="#153358"/>
<path d="M31.4139 25.0533C31.9302 25.0533 32.3486 24.5076 32.3486 23.8345C32.3486 23.1613 31.9302 22.6156 31.4139 22.6156C30.8977 22.6156 30.4792 23.1613 30.4792 23.8345C30.4792 24.5076 30.8977 25.0533 31.4139 25.0533Z" fill="#153358"/>
<path fill-rule="evenodd" clip-rule="evenodd" d="M20.5964 40C31.6421 40 40.5964 31.0457 40.5964 20C40.5964 8.9543 31.6421 0 20.5964 0C9.55074 0 0.596436 8.9543 0.596436 20C0.596436 31.0457 9.55074 40 20.5964 40ZM20.5964 38.9583C31.0668 38.9583 39.5548 30.4704 39.5548 20C39.5548 9.5296 31.0668 1.04167 20.5964 1.04167C10.126 1.04167 1.6381 9.5296 1.6381 20C1.6381 30.4704 10.126 38.9583 20.5964 38.9583Z" fill="#153358"/>
<path d="M119.223 15.4792H120.321V23.4875H123.873V24.5208H119.223V15.4792Z" fill="#153358"/>
<path fill-rule="evenodd" clip-rule="evenodd" d="M119.14 15.3958H120.404V23.4041H123.956V24.6041H119.14V15.3958ZM120.321 23.4875V15.4791H119.223V24.5208H123.873V23.4875H120.321Z" fill="#153358"/>
<path d="M111.562 21.8083L111.949 20.775H115.953L116.341 21.8083H111.562ZM113.925 17.52L112.401 21.1108L112.298 21.3433L110.955 24.5208H109.728L113.925 15.0271L118.123 24.5208H116.896L115.579 21.4208L115.475 21.1625L113.925 17.52Z" fill="#153358"/>
<path fill-rule="evenodd" clip-rule="evenodd" d="M112.543 20.7751H115.31L113.925 17.5201L112.543 20.7751ZM112.669 20.6918H115.184L113.925 17.7332L112.669 20.6918ZM112.101 21.8084L110.954 24.5209H109.727L113.925 15.0272L118.123 24.5209H116.895L115.743 21.8084H112.101ZM112.156 21.8918L111.009 24.6043H109.599L113.925 14.8211L118.251 24.6043H116.84L115.688 21.8918H112.156Z" fill="#153358"/>
<path d="M104.548 19.7417V19.1346H106.008C106.309 19.1346 106.581 19.0829 106.822 18.9796C107.063 18.8763 107.252 18.7256 107.39 18.5275C107.528 18.3294 107.597 18.0883 107.597 17.8042C107.597 17.3736 107.446 17.0421 107.145 16.8096C106.843 16.5685 106.464 16.4479 106.008 16.4479H104.781V23.5521H106.137C106.525 23.5521 106.865 23.4832 107.157 23.3454C107.459 23.2076 107.691 23.0096 107.855 22.7513C108.027 22.4929 108.113 22.1786 108.113 21.8083C108.113 21.5328 108.066 21.2874 107.971 21.0721C107.876 20.8568 107.739 20.676 107.558 20.5296C107.386 20.3832 107.179 20.2756 106.938 20.2067C106.697 20.1292 106.43 20.0904 106.137 20.0904H104.548V19.4833H106.137C106.576 19.4833 106.981 19.5307 107.351 19.6254C107.721 19.7201 108.044 19.8665 108.32 20.0646C108.604 20.254 108.824 20.4994 108.979 20.8008C109.134 21.1022 109.211 21.4596 109.211 21.8729C109.211 22.4671 109.073 22.9622 108.798 23.3583C108.531 23.7458 108.165 24.0386 107.7 24.2367C107.244 24.4261 106.723 24.5208 106.137 24.5208H103.683V15.4792H106.008C106.55 15.4792 107.02 15.561 107.416 15.7246C107.82 15.8882 108.135 16.1379 108.359 16.4738C108.583 16.801 108.695 17.2229 108.695 17.7396C108.695 18.1615 108.583 18.5232 108.359 18.8246C108.135 19.126 107.82 19.3542 107.416 19.5092C107.02 19.6642 106.55 19.7417 106.008 19.7417H104.548Z" fill="#153358"/>
<path fill-rule="evenodd" clip-rule="evenodd" d="M104.78 20.0904V23.552H106.137C106.524 23.552 106.864 23.4832 107.157 23.3454C107.458 23.2076 107.691 23.0095 107.855 22.7512C108.027 22.4929 108.113 22.1786 108.113 21.8083C108.113 21.5327 108.066 21.2873 107.971 21.072C107.876 20.8568 107.738 20.6759 107.557 20.5295C107.385 20.3832 107.179 20.2755 106.937 20.2066C106.696 20.1291 106.429 20.0904 106.137 20.0904H104.78ZM104.864 20.1737V23.4687H106.137C106.514 23.4687 106.842 23.4016 107.122 23.27L107.122 23.2696C107.41 23.1379 107.63 22.9502 107.784 22.7066L107.785 22.705C107.947 22.4628 108.03 22.1653 108.03 21.8083C108.03 21.5423 107.984 21.3086 107.895 21.1056C107.805 20.9023 107.675 20.7323 107.505 20.5943L107.503 20.5931C107.341 20.4552 107.146 20.3527 106.915 20.2868L106.912 20.286C106.68 20.2115 106.422 20.1737 106.137 20.1737H104.864ZM107.345 19.6239C107.347 19.6244 107.349 19.6249 107.351 19.6254C107.721 19.7201 108.044 19.8665 108.32 20.0645C108.604 20.254 108.823 20.4994 108.978 20.8008C109.133 21.1022 109.211 21.4595 109.211 21.8729C109.211 22.467 109.073 22.9622 108.797 23.3583C108.531 23.7458 108.165 24.0386 107.7 24.2366C107.243 24.4261 106.722 24.5208 106.137 24.5208H103.682V15.4791H106.007C106.55 15.4791 107.019 15.5609 107.415 15.7245C107.82 15.8882 108.134 16.1379 108.358 16.4737C108.582 16.8009 108.694 17.2229 108.694 17.7395C108.694 18.1615 108.582 18.5232 108.358 18.8245C108.134 19.1259 107.82 19.3541 107.415 19.5091C107.391 19.5187 107.366 19.528 107.341 19.537C107.291 19.5549 107.24 19.5717 107.188 19.5872C107.241 19.5985 107.293 19.6108 107.345 19.6239ZM106.007 19.1345C106.309 19.1345 106.58 19.0829 106.821 18.9795C107.062 18.8762 107.252 18.7255 107.39 18.5275C107.527 18.3294 107.596 18.0883 107.596 17.8041C107.596 17.3736 107.446 17.042 107.144 16.8095C106.843 16.5684 106.464 16.4479 106.007 16.4479H104.78V19.1345H106.007ZM104.864 19.0512H106.007C106.299 19.0512 106.559 19.0012 106.788 18.9029C107.016 18.8052 107.193 18.664 107.321 18.4799C107.448 18.2981 107.513 18.0744 107.513 17.8041C107.513 17.3955 107.371 17.09 107.093 16.8755L107.092 16.8746C106.808 16.6474 106.449 16.5312 106.007 16.5312H104.864V19.0512ZM107.445 19.5868C107.457 19.5826 107.468 19.5782 107.479 19.5739C107.813 19.6707 108.109 19.8112 108.367 19.996C108.662 20.1932 108.891 20.449 109.052 20.7627C109.215 21.0782 109.294 21.4492 109.294 21.8729C109.294 22.48 109.153 22.9927 108.866 23.4057C108.589 23.8071 108.211 24.1095 107.732 24.3133L107.731 24.3136C107.263 24.5079 106.731 24.6041 106.137 24.6041H103.599V15.3958H106.007C106.558 15.3958 107.038 15.4788 107.447 15.6474C107.866 15.8167 108.193 16.0764 108.427 16.4271C108.663 16.7718 108.777 17.2113 108.777 17.7395C108.777 18.1771 108.661 18.5567 108.425 18.8742C108.197 19.1817 107.88 19.4144 107.479 19.5739C107.465 19.5698 107.45 19.5657 107.436 19.5618" fill="#153358"/>
<path d="M94.1242 20.0001C94.1242 20.6804 94.2706 21.2875 94.5633 21.8213C94.8647 22.3552 95.2738 22.7772 95.7904 23.0872C96.3071 23.3972 96.8926 23.5522 97.5471 23.5522C98.2101 23.5522 98.7957 23.3972 99.3038 23.0872C99.8204 22.7772 100.225 22.3552 100.518 21.8213C100.819 21.2875 100.97 20.6804 100.97 20.0001C100.97 19.3198 100.819 18.7127 100.518 18.1788C100.225 17.645 99.8204 17.223 99.3038 16.913C98.7957 16.603 98.2101 16.448 97.5471 16.448C96.8926 16.448 96.3071 16.603 95.7904 16.913C95.2738 17.223 94.8647 17.645 94.5633 18.1788C94.2706 18.7127 94.1242 19.3198 94.1242 20.0001ZM92.9617 20.0001C92.9617 19.337 93.0736 18.7256 93.2975 18.1659C93.53 17.5976 93.8529 17.1068 94.2663 16.6934C94.6796 16.2715 95.1661 15.9443 95.7258 15.7118C96.2856 15.4706 96.8926 15.3501 97.5471 15.3501C98.2101 15.3501 98.8172 15.4706 99.3683 15.7118C99.9281 15.9443 100.415 16.2715 100.828 16.6934C101.241 17.1068 101.56 17.5976 101.784 18.1659C102.016 18.7256 102.133 19.337 102.133 20.0001C102.133 20.6545 102.016 21.2659 101.784 21.8343C101.56 22.4026 101.241 22.8977 100.828 23.3197C100.415 23.733 99.9281 24.0602 99.3683 24.3013C98.8172 24.5338 98.2101 24.6501 97.5471 24.6501C96.8926 24.6501 96.2856 24.5338 95.7258 24.3013C95.1661 24.0602 94.6796 23.733 94.2663 23.3197C93.8529 22.8977 93.53 22.4026 93.2975 21.8343C93.0736 21.2659 92.9617 20.6545 92.9617 20.0001Z" fill="#153358"/>
<path fill-rule="evenodd" clip-rule="evenodd" d="M99.2601 23.0159L99.2606 23.0155C99.7645 22.7132 100.159 22.3022 100.445 21.7811L100.445 21.7802C100.739 21.2601 100.886 20.6674 100.886 19.9999C100.886 19.3324 100.739 18.7397 100.445 18.2196L100.445 18.2187L100.445 18.2187C100.159 17.6977 99.7645 17.2866 99.2606 16.9843L99.2601 16.984C98.7665 16.6828 98.1963 16.5312 97.5468 16.5312C96.9061 16.5312 96.3356 16.6827 95.833 16.9843C95.3291 17.2866 94.9303 17.6978 94.6359 18.2192C94.3508 18.7393 94.2072 19.3322 94.2072 19.9999C94.2072 20.6677 94.3508 21.2605 94.6359 21.7806C94.9303 22.302 95.3291 22.7132 95.833 23.0155C96.3356 23.3171 96.9061 23.4687 97.5468 23.4687C98.1963 23.4687 98.7665 23.317 99.2601 23.0159ZM94.5631 21.8212C94.2703 21.2873 94.1239 20.6802 94.1239 19.9999C94.1239 19.3196 94.2703 18.7126 94.5631 18.1787C94.8644 17.6448 95.2735 17.2228 95.7901 16.9128C96.3068 16.6028 96.8924 16.4478 97.5468 16.4478C98.2099 16.4478 98.7954 16.6028 99.3035 16.9128C99.8201 17.2228 100.225 17.6448 100.518 18.1787C100.819 18.7126 100.97 19.3196 100.97 19.9999C100.97 20.6802 100.819 21.2873 100.518 21.8212C100.225 22.3551 99.8201 22.777 99.3035 23.087C98.7954 23.397 98.2099 23.552 97.5468 23.552C96.8924 23.552 96.3068 23.397 95.7901 23.087C95.2735 22.777 94.8644 22.3551 94.5631 21.8212ZM93.2201 18.1342L93.2201 18.1342C93.4565 17.5563 93.7853 17.0561 94.2067 16.6346C94.6279 16.2047 95.1236 15.8714 95.6931 15.6348C96.2638 15.3891 96.8821 15.2666 97.5468 15.2666C98.2199 15.2666 98.8383 15.389 99.4007 15.6349C99.9701 15.8715 100.466 16.2048 100.887 16.6346C101.308 17.0561 101.633 17.5564 101.861 18.1345C102.098 18.705 102.216 19.3272 102.216 19.9999C102.216 20.6643 102.098 21.2863 101.861 21.8652C101.633 22.4433 101.308 22.9478 100.887 23.3778L100.887 23.3784C100.465 23.7995 99.97 24.1326 99.401 24.3777L99.4004 24.3779C98.838 24.6152 98.2198 24.7332 97.5468 24.7332C96.8823 24.7332 96.2642 24.6152 95.6936 24.3781L95.6926 24.3777L95.6926 24.3777C95.1236 24.1326 94.6282 23.7995 94.207 23.3784L94.2064 23.3778C93.7853 22.9479 93.4565 22.4435 93.2201 21.8656L93.2197 21.8646L93.2197 21.8646C92.9917 21.2859 92.8781 20.6641 92.8781 19.9999C92.8781 19.3273 92.9916 18.7053 93.2198 18.1348L93.2201 18.1342ZM101.783 21.8341C102.016 21.2657 102.132 20.6544 102.132 19.9999C102.132 19.3369 102.016 18.7255 101.783 18.1657C101.56 17.5974 101.241 17.1066 100.828 16.6932C100.414 16.2713 99.9278 15.9441 99.3681 15.7116C98.8169 15.4705 98.2099 15.3499 97.5468 15.3499C96.8924 15.3499 96.2853 15.4705 95.7256 15.7116C95.1658 15.9441 94.6793 16.2713 94.266 16.6932C93.8526 17.1066 93.5297 17.5974 93.2972 18.1657C93.0733 18.7255 92.9614 19.3369 92.9614 19.9999C92.9614 20.6544 93.0733 21.2657 93.2972 21.8341C93.5297 22.4024 93.8526 22.8976 94.266 23.3195C94.6793 23.7328 95.1658 24.0601 95.7256 24.3012C96.2853 24.5337 96.8924 24.6499 97.5468 24.6499C98.2099 24.6499 98.8169 24.5337 99.3681 24.3012C99.9278 24.0601 100.414 23.7328 100.828 23.3195C101.241 22.8976 101.56 22.4024 101.783 21.8341Z" fill="#153358"/>
<path d="M88.0538 15.4792H89.1517V23.4875H92.7038V24.5208H88.0538V15.4792Z" fill="#153358"/>
<path fill-rule="evenodd" clip-rule="evenodd" d="M87.9702 15.3958H89.2348V23.4041H92.7869V24.6041H87.9702V15.3958ZM89.1515 23.4875V15.4791H88.0535V24.5208H92.7035V23.4875H89.1515Z" fill="#153358"/>
<path d="M82.2366 20.9688V19.9355H86.4345C86.4345 20.5641 86.3398 21.1626 86.1503 21.7309C85.9609 22.2906 85.681 22.7901 85.3107 23.2293C84.9404 23.6684 84.4841 24.0172 83.9416 24.2755C83.4077 24.5252 82.7963 24.6501 82.1074 24.6501C81.4529 24.6501 80.8459 24.5381 80.2861 24.3143C79.7264 24.0818 79.2399 23.7588 78.8266 23.3455C78.4132 22.9236 78.0903 22.4284 77.8578 21.8601C77.6339 21.2918 77.522 20.6718 77.522 20.0001C77.522 19.3284 77.6339 18.7084 77.8578 18.1401C78.0903 17.5718 78.4132 17.0809 78.8266 16.6676C79.2399 16.2456 79.7264 15.9227 80.2861 15.6988C80.8459 15.4663 81.4529 15.3501 82.1074 15.3501C82.6671 15.3501 83.1795 15.4233 83.6445 15.5697C84.1181 15.7161 84.54 15.9313 84.9103 16.2155C85.2892 16.4997 85.6078 16.8527 85.8661 17.2747L85.0911 17.9851C84.807 17.5029 84.4109 17.1283 83.9028 16.8613C83.3948 16.5858 82.7963 16.448 82.1074 16.448C81.4702 16.448 80.8932 16.5987 80.3766 16.9001C79.8599 17.2015 79.4466 17.6191 79.1366 18.153C78.8352 18.6783 78.6845 19.294 78.6845 20.0001C78.6845 20.6976 78.8352 21.3133 79.1366 21.8472C79.4466 22.3811 79.8599 22.7987 80.3766 23.1001C80.8932 23.4015 81.4702 23.5522 82.1074 23.5522C82.5552 23.5522 82.9556 23.4876 83.3086 23.3584C83.6703 23.2206 83.9803 23.0312 84.2386 22.7901C84.497 22.549 84.7079 22.2734 84.8716 21.9634C85.0438 21.6534 85.1686 21.3219 85.2461 20.9688H82.2366Z" fill="#153358"/>
<path fill-rule="evenodd" clip-rule="evenodd" d="M82.1529 21.052V19.852H86.5175V19.9353C86.5175 20.5725 86.4215 21.1799 86.2291 21.7571L86.229 21.7575C86.0363 22.3268 85.7513 22.8354 85.3742 23.2828C84.9959 23.7315 84.5298 24.0874 83.9771 24.3506L83.9766 24.3508C83.4299 24.6065 82.8062 24.7332 82.1071 24.7332C81.443 24.7332 80.8253 24.6196 80.2549 24.3915L80.2539 24.391C79.6845 24.1545 79.1887 23.8256 78.7673 23.4043L78.7667 23.4036C78.3456 22.9737 78.0168 22.4694 77.7804 21.8915L77.78 21.8905C77.5519 21.3115 77.4384 20.681 77.4384 19.9999C77.4384 19.3188 77.5519 18.6884 77.78 18.1094L77.7804 18.1084C78.0168 17.5304 78.3456 17.0303 78.767 16.6088C79.1885 16.1787 79.6845 15.8495 80.2544 15.6215C80.8249 15.3846 81.4428 15.2666 82.1071 15.2666C82.674 15.2666 83.1949 15.3407 83.669 15.4899C84.1512 15.639 84.5819 15.8586 84.9604 16.1489C85.3479 16.4396 85.6734 16.8006 85.9369 17.231L85.9728 17.2895L85.0713 18.1159L85.0191 18.0272C84.743 17.5587 84.3585 17.1949 83.8638 16.9349L83.8628 16.9344C83.3691 16.6666 82.7848 16.5312 82.1071 16.5312C81.4836 16.5312 80.9213 16.6784 80.4183 16.9719C79.9145 17.2657 79.5114 17.6728 79.2084 18.1945C78.9155 18.7051 78.7675 19.306 78.7675 19.9999C78.7675 20.6849 78.9153 21.2859 79.2086 21.8056C79.5116 22.3272 79.9146 22.7341 80.4183 23.0279C80.9213 23.3214 81.4836 23.4687 82.1071 23.4687C82.5467 23.4687 82.937 23.4053 83.2792 23.2802C83.6315 23.1459 83.9319 22.962 84.1815 22.729C84.4331 22.4942 84.6383 22.2261 84.7976 21.9243L84.7984 21.9228C84.9501 21.6497 85.0642 21.3596 85.1408 21.052H82.1529ZM85.2459 20.9687C85.2397 20.9966 85.2333 21.0244 85.2266 21.052C85.1483 21.374 85.0299 21.6778 84.8713 21.9632C84.7077 22.2732 84.4967 22.5488 84.2384 22.7899C83.98 23.031 83.67 23.2205 83.3084 23.3582C82.9553 23.4874 82.5549 23.552 82.1071 23.552C81.4699 23.552 80.8929 23.4013 80.3763 23.0999C79.8596 22.7985 79.4463 22.3809 79.1363 21.847C78.8349 21.3131 78.6842 20.6974 78.6842 19.9999C78.6842 19.2938 78.8349 18.6781 79.1363 18.1528C79.4463 17.6189 79.8596 17.2013 80.3763 16.8999C80.8929 16.5985 81.4699 16.4478 82.1071 16.4478C82.796 16.4478 83.3945 16.5856 83.9025 16.8612C84.3848 17.1146 84.7662 17.4649 85.0467 17.9123C85.0617 17.9362 85.0764 17.9604 85.0909 17.9849L85.8659 17.2745C85.6075 16.8526 85.2889 16.4995 84.91 16.2153C84.5397 15.9312 84.1178 15.7159 83.6442 15.5695C83.1792 15.4231 82.6668 15.3499 82.1071 15.3499C81.4527 15.3499 80.8456 15.4662 80.2859 15.6987C79.7261 15.9226 79.2396 16.2455 78.8263 16.6674C78.4129 17.0807 78.09 17.5716 77.8575 18.1399C77.6336 18.7082 77.5217 19.3282 77.5217 19.9999C77.5217 20.6716 77.6336 21.2916 77.8575 21.8599C78.09 22.4282 78.4129 22.9234 78.8263 23.3453C79.2396 23.7587 79.7261 24.0816 80.2859 24.3141C80.8456 24.538 81.4527 24.6499 82.1071 24.6499C82.796 24.6499 83.4074 24.5251 83.9413 24.2753C84.4838 24.017 84.9402 23.6682 85.3104 23.2291C85.6807 22.7899 85.9606 22.2905 86.15 21.7307C86.3311 21.1876 86.4256 20.6169 86.4336 20.0187C86.434 19.9909 86.4342 19.9632 86.4342 19.9353H82.2363V20.9687H85.2459Z" fill="#153358"/>
<path d="M74.3594 24.0041C74.3594 23.806 74.4283 23.6381 74.566 23.5003C74.7124 23.3626 74.8803 23.2937 75.0698 23.2937C75.2678 23.2937 75.4358 23.3626 75.5735 23.5003C75.7113 23.6381 75.7802 23.806 75.7802 24.0041C75.7802 24.1935 75.7113 24.3614 75.5735 24.5078C75.4358 24.6456 75.2678 24.7145 75.0698 24.7145C74.8803 24.7145 74.7124 24.6456 74.566 24.5078C74.4283 24.3614 74.3594 24.1935 74.3594 24.0041Z" fill="#153358"/>
<path fill-rule="evenodd" clip-rule="evenodd" d="M74.5091 23.4397L74.5091 23.4397C74.6699 23.2884 74.8579 23.2104 75.07 23.2104C75.2897 23.2104 75.479 23.2878 75.6327 23.4415C75.7864 23.5952 75.8637 23.7844 75.8637 24.0042C75.8637 24.2162 75.7858 24.4042 75.6344 24.565L75.6327 24.5669L75.6327 24.5668C75.479 24.7205 75.2897 24.7979 75.07 24.7979C74.8579 24.7979 74.6699 24.7199 74.5091 24.5686L74.5073 24.5669L74.5056 24.565C74.3542 24.4042 74.2762 24.2162 74.2762 24.0042C74.2762 23.7844 74.3536 23.5952 74.5073 23.4415L74.5091 23.4397ZM74.5662 23.5004C74.4285 23.6382 74.3596 23.8061 74.3596 24.0042C74.3596 24.1936 74.4285 24.3615 74.5662 24.5079C74.7126 24.6457 74.8806 24.7146 75.07 24.7146C75.2681 24.7146 75.436 24.6457 75.5737 24.5079C75.7115 24.3615 75.7804 24.1936 75.7804 24.0042C75.7804 23.8061 75.7115 23.6382 75.5737 23.5004C75.436 23.3626 75.2681 23.2937 75.07 23.2937C74.8806 23.2937 74.7126 23.3626 74.5662 23.5004Z" fill="#153358"/>
<path d="M67.4252 21.7826C67.6319 22.1443 67.8472 22.4629 68.071 22.7384C68.3035 23.014 68.5619 23.2293 68.846 23.3843C69.1302 23.5393 69.4531 23.6168 69.8148 23.6168C70.297 23.6168 70.6845 23.4833 70.9773 23.2163C71.2701 22.9494 71.4165 22.6093 71.4165 22.1959C71.4165 21.7912 71.3217 21.4683 71.1323 21.2272C70.9428 20.9861 70.6931 20.7923 70.3831 20.6459C70.0817 20.4909 69.7588 20.3531 69.4144 20.2326C69.1905 20.1551 68.9408 20.0561 68.6652 19.9355C68.3897 19.8063 68.127 19.647 67.8773 19.4576C67.6276 19.2595 67.4209 19.0184 67.2573 18.7343C67.1023 18.4501 67.0248 18.1013 67.0248 17.688C67.0248 17.2402 67.1367 16.8398 67.3606 16.4868C67.5845 16.1337 67.8945 15.8581 68.2906 15.6601C68.6867 15.4534 69.1388 15.3501 69.6469 15.3501C70.1377 15.3501 70.564 15.4448 70.9256 15.6343C71.2959 15.8151 71.6102 16.0519 71.8685 16.3447C72.1269 16.6288 72.3292 16.9302 72.4756 17.2488L71.5327 17.7913C71.4208 17.5675 71.2787 17.3479 71.1065 17.1326C70.9342 16.9173 70.7233 16.7408 70.4735 16.603C70.2324 16.4652 69.9353 16.3963 69.5823 16.3963C69.0915 16.3963 68.7341 16.5169 68.5102 16.758C68.2863 16.9905 68.1744 17.2531 68.1744 17.5459C68.1744 17.7956 68.239 18.0281 68.3681 18.2434C68.4973 18.4501 68.7126 18.6481 69.014 18.8376C69.324 19.0184 69.7416 19.1993 70.2669 19.3801C70.508 19.4662 70.762 19.5781 71.029 19.7159C71.2959 19.8537 71.5413 20.0302 71.7652 20.2455C71.9977 20.4522 72.1872 20.7062 72.3335 21.0076C72.4799 21.3004 72.5531 21.6534 72.5531 22.0668C72.5531 22.4629 72.4756 22.8202 72.3206 23.1388C72.1742 23.4575 71.9676 23.7287 71.7006 23.9526C71.4423 24.1765 71.1452 24.3487 70.8094 24.4693C70.4822 24.5898 70.1377 24.6501 69.776 24.6501C69.2852 24.6501 68.8288 24.5468 68.4069 24.3401C67.9935 24.1248 67.6276 23.845 67.309 23.5005C66.999 23.1475 66.7449 22.7729 66.5469 22.3768L67.4252 21.7826Z" fill="#153358"/>
<path fill-rule="evenodd" clip-rule="evenodd" d="M67.453 21.663L67.4976 21.7411C67.7022 22.0992 67.9148 22.4137 68.1353 22.6851C68.3617 22.9534 68.612 23.1615 68.886 23.3109C69.1565 23.4585 69.4654 23.5332 69.8148 23.5332C70.281 23.5332 70.6469 23.4046 70.9212 23.1546C71.1958 22.9042 71.3332 22.5868 71.3332 22.1957C71.3332 21.8037 71.2415 21.5008 71.0668 21.2785C70.8863 21.0487 70.6473 20.8626 70.3476 20.7211L70.345 20.7199C70.0473 20.5668 69.7281 20.4305 69.387 20.3111C69.1606 20.2327 68.9088 20.1329 68.6318 20.0117L68.6299 20.0108C68.3488 19.8791 68.0812 19.7167 67.827 19.5238L67.8255 19.5227C67.5673 19.3179 67.3538 19.0687 67.1851 18.7757L67.1841 18.774C67.0209 18.4747 66.9415 18.1113 66.9415 17.6878C66.9415 17.2254 67.0573 16.8093 67.2903 16.442C67.5227 16.0755 67.8442 15.7901 68.2528 15.5857C68.6622 15.3722 69.1276 15.2666 69.6469 15.2666C70.148 15.2666 70.5877 15.3632 70.9633 15.5597C71.3422 15.7449 71.665 15.9879 71.9306 16.2889C72.194 16.5786 72.4012 16.887 72.5514 17.2139L72.5831 17.283L71.4977 17.9075L71.4582 17.8284C71.3491 17.6103 71.2103 17.3956 71.0414 17.1845C70.8763 16.978 70.6738 16.8085 70.4333 16.6758L70.4322 16.6752C70.2067 16.5463 69.9247 16.4795 69.5823 16.4795C69.1032 16.4795 68.7731 16.5973 68.5713 16.8145L68.5703 16.8156C68.3597 17.0344 68.2577 17.2768 68.2577 17.5457C68.2577 17.78 68.318 17.9975 68.4392 18.1997C68.5593 18.3915 68.7629 18.581 69.0572 18.7661C69.3605 18.9429 69.7721 19.1214 70.294 19.3011L70.2949 19.3014C70.5401 19.389 70.7975 19.5025 71.0672 19.6417C71.3411 19.783 71.5927 19.964 71.8218 20.1841C72.0624 20.3983 72.2578 20.6608 72.4083 20.9706C72.5617 21.2775 72.6365 21.6438 72.6365 22.0666C72.6365 22.4735 72.5569 22.8433 72.396 23.1743C72.2446 23.5035 72.0307 23.7842 71.7547 24.0158C71.4885 24.2465 71.1826 24.4236 70.8379 24.5474C70.5012 24.6714 70.1471 24.7332 69.7761 24.7332C69.2731 24.7332 68.8041 24.6273 68.3703 24.4148L68.3684 24.4138C67.9465 24.1941 67.5729 23.9083 67.2478 23.5569L67.2464 23.5553C66.9319 23.1972 66.6738 22.8167 66.4724 22.4138L66.4397 22.3485L67.453 21.663ZM70.8094 24.4691C71.1452 24.3485 71.4423 24.1763 71.7007 23.9524C71.9676 23.7285 72.1743 23.4573 72.3207 23.1387C72.4757 22.8201 72.5532 22.4627 72.5532 22.0666C72.5532 21.6532 72.48 21.3002 72.3336 21.0074C72.1872 20.706 71.9977 20.452 71.7652 20.2453C71.5414 20.0301 71.2959 19.8535 71.029 19.7157C70.762 19.578 70.508 19.466 70.2669 19.3799C69.7416 19.1991 69.324 19.0182 69.014 18.8374C68.7126 18.648 68.4973 18.4499 68.3682 18.2432C68.239 18.028 68.1744 17.7955 68.1744 17.5457C68.1744 17.253 68.2864 16.9903 68.5102 16.7578C68.7341 16.5167 69.0915 16.3962 69.5823 16.3962C69.9354 16.3962 70.2325 16.4651 70.4736 16.6028C70.7233 16.7406 70.9343 16.9171 71.1065 17.1324C71.2597 17.3239 71.389 17.5188 71.4945 17.717C71.5076 17.7417 71.5204 17.7664 71.5327 17.7912L72.4757 17.2487C72.3293 16.9301 72.1269 16.6287 71.8686 16.3445C71.6102 16.0517 71.2959 15.8149 70.9257 15.6341C70.564 15.4446 70.1377 15.3499 69.6469 15.3499C69.1389 15.3499 68.6868 15.4532 68.2907 15.6599C67.8945 15.858 67.5845 16.1335 67.3607 16.4866C67.1368 16.8396 67.0248 17.2401 67.0248 17.6878C67.0248 18.1012 67.1023 18.4499 67.2573 18.7341C67.4209 19.0182 67.6276 19.2594 67.8773 19.4574C68.127 19.6469 68.3897 19.8062 68.6652 19.9353C68.9408 20.0559 69.1905 20.1549 69.4144 20.2324C69.7589 20.353 70.0818 20.4907 70.3832 20.6457C70.6932 20.7921 70.9429 20.9859 71.1323 21.227C71.3218 21.4681 71.4165 21.791 71.4165 22.1957C71.4165 22.6091 71.2701 22.9492 70.9773 23.2162C70.6845 23.4831 70.297 23.6166 69.8148 23.6166C69.4532 23.6166 69.1302 23.5391 68.8461 23.3841C68.5619 23.2291 68.3036 23.0138 68.0711 22.7382C67.8622 22.4812 67.6609 22.1867 67.467 21.8548C67.4531 21.8308 67.4391 21.8067 67.4252 21.7824L66.5469 22.3766C66.745 22.7727 66.999 23.1473 67.309 23.5003C67.6276 23.8448 67.9936 24.1246 68.4069 24.3399C68.8289 24.5466 69.2852 24.6499 69.7761 24.6499C70.1377 24.6499 70.4822 24.5896 70.8094 24.4691Z" fill="#153358"/>
<path d="M61.2386 16.5125V15.4792H65.2815V16.5125H61.2386ZM61.2386 20.1292V19.0958H65.1523V20.1292H61.2386ZM60.6315 15.4792H61.7294V24.5208H60.6315V15.4792Z" fill="#153358"/>
<path fill-rule="evenodd" clip-rule="evenodd" d="M65.2812 15.4791V16.5125H61.7291V19.0958H65.152V20.1291H61.7291V24.5208H60.6312V15.4791H65.2812ZM61.8124 20.2125V24.6041H60.5479V15.3958H65.3645V16.5958H61.8124V19.0125H65.2354V20.2125H61.8124Z" fill="#153358"/>
<path d="M55.3337 22.48L58.3045 15.4792H59.5316L55.3337 24.9729L51.1357 15.4792H52.3628L55.3337 22.48Z" fill="#153358"/>
<path fill-rule="evenodd" clip-rule="evenodd" d="M51.1355 15.4791H52.3626L55.3335 22.48L58.3043 15.4791H59.5314L55.3335 24.9729L51.1355 15.4791ZM55.3335 22.2666L58.2491 15.3958H59.6593L55.3335 25.1789L51.0076 15.3958H52.4178L55.3335 22.2666Z" fill="#153358"/>
</svg>
