<svg width="51" height="32" viewBox="0 0 51 32" fill="none" xmlns="http://www.w3.org/2000/svg">
<path d="M2.371 5.13161e-05C1.06196 5.13161e-05 0 1.06145 0 2.37105V29.629C0 30.9384 1.06211 32 2.371 32H48.5844C49.8934 32 50.9554 30.9386 50.9554 29.629V2.371C50.9554 1.0616 49.8933 0 48.5844 0H2.37095L2.371 5.13161e-05ZM16.7086 3.85197C19.6171 3.85197 22.2884 4.86389 24.3853 6.55418C22.6211 8.13273 21.3052 10.2067 20.656 12.5574H21.6735C22.2728 10.6181 23.3613 8.89155 24.7961 7.52233C26.2309 8.89155 27.3194 10.6181 27.9187 12.5574H28.9522C28.294 10.219 26.9763 8.15749 25.2134 6.58924C27.3142 4.8775 29.996 3.85192 32.9171 3.85192C39.6581 3.85192 45.1225 9.31698 45.1225 16.0589C45.1225 22.8009 39.6581 28.2659 32.9171 28.2659C29.9475 28.2659 27.2244 27.206 25.1082 25.4427C27.0012 23.7958 28.3968 21.588 29.035 19.0765H28.0397C27.473 21.1845 26.3324 23.0594 24.7961 24.5255C23.2598 23.0594 22.1208 21.1845 21.5541 19.0765H20.6066C21.2485 21.5517 22.6258 23.7285 24.4904 25.3599C22.3781 27.1014 19.6657 28.1481 16.7085 28.1481C9.96763 28.1481 4.50318 22.7093 4.50318 16C4.50318 9.29074 9.96763 3.85197 16.7086 3.85197ZM32.0015 12.4332C30.535 12.4332 29.1082 13.7153 29.1082 16.1226C29.1082 17.719 29.8789 18.7723 31.3949 18.7723C31.8235 18.7725 32.5063 18.5972 32.5063 18.5972L32.7324 17.2023C32.7324 17.2023 32.1092 17.5175 31.6815 17.5175C30.7803 17.5175 30.4188 16.8245 30.4188 16.0797C30.4188 14.5687 31.1941 13.7373 32.0573 13.7373C32.7046 13.7373 33.2245 14.1035 33.2245 14.1035L33.4315 12.7468C33.4315 12.7468 32.6619 12.4332 32.0015 12.4332ZM44.3311 12.551L43.0557 12.5542L42.7818 14.2325C42.7818 14.2325 42.3023 13.5812 41.5525 13.5812C40.3866 13.5812 39.4155 14.9662 39.4155 16.559C39.4155 17.5871 39.9324 18.5955 40.992 18.5955C41.7542 18.5955 42.1767 18.0717 42.1767 18.0717L42.1209 18.5191H43.3598L44.3311 12.551ZM7.79932 12.5685L6.78343 18.551H8.00794L8.78185 14.0399L8.89649 18.551H9.77226L11.406 14.0399L10.6815 18.551H11.9825L12.9857 12.5685H10.9729L9.71973 16.2389L9.65446 12.5685H7.79938L7.79932 12.5685ZM20.5923 12.957C20.5647 12.9848 19.8519 17.095 19.8519 17.5955C19.8519 18.3367 20.2673 18.6678 20.8519 18.6624C21.2707 18.6589 21.5951 18.5537 21.7452 18.5096C21.7609 18.5053 21.7914 18.4968 21.7914 18.4968L21.949 17.4268C21.8633 17.4268 21.737 17.4634 21.6257 17.4634C21.1893 17.4634 21.141 17.2312 21.1687 17.0589L21.5207 14.8758H22.1847L22.3455 13.6927H21.7197L21.8471 12.957H20.5923ZM35.3933 13.559C34.5386 13.559 33.8837 13.8408 33.8837 13.8408L33.7022 14.9395C33.7022 14.9395 34.243 14.715 35.0605 14.715C35.5246 14.715 35.8646 14.7681 35.8646 15.1545C35.8646 15.3892 35.8232 15.4762 35.8232 15.4762C35.8232 15.4762 35.4562 15.4443 35.2866 15.4443C34.2088 15.4443 33.0764 15.9167 33.0764 17.3376C33.0764 18.4572 33.8198 18.7134 34.2802 18.7134C35.1596 18.7134 35.5388 18.1292 35.5589 18.1274L35.5174 18.6147H36.6146L37.1051 15.0988C37.1052 13.6069 35.8345 13.5589 35.3933 13.5589V13.559ZM14.8121 13.5653C13.9543 13.5653 13.2961 13.8472 13.2961 13.8472L13.1146 14.9459C13.1146 14.9459 13.6573 14.7214 14.4777 14.7214C14.9435 14.7214 15.285 14.7747 15.285 15.1608C15.285 15.3954 15.2436 15.4825 15.2436 15.4825C15.2436 15.4825 14.8755 15.4507 14.7054 15.4507C13.6235 15.4507 12.4873 15.9223 12.4873 17.3424C12.4873 18.4614 13.2321 18.7182 13.6942 18.7182C14.5768 18.7182 14.9574 18.1339 14.9777 18.1322L14.9363 18.6194H16.0382L16.5302 15.1051C16.5302 13.6141 15.255 13.5653 14.8121 13.5653V13.5653ZM18.7038 13.5653C17.7826 13.5653 16.8471 13.9372 16.8471 15.2071C16.8471 16.6459 18.406 16.5006 18.406 17.1067C18.406 17.5113 17.971 17.5446 17.6353 17.5446C17.0544 17.5446 16.5321 17.3439 16.5302 17.3536L16.363 18.4523C16.3931 18.4616 16.7166 18.6067 17.7611 18.6067C18.0416 18.6067 19.6449 18.6779 19.6449 17.008C19.6449 15.4468 18.1608 15.7562 18.1608 15.129C18.1608 14.8167 18.4018 14.7182 18.8439 14.7182C19.0195 14.7182 19.6959 14.7739 19.6959 14.7739L19.8519 13.664C19.8519 13.6642 19.4154 13.5653 18.7038 13.5653ZM24.4617 13.5653C23.1817 13.5656 22.2341 14.942 22.2341 16.4968C22.2341 18.2914 23.4214 18.7182 24.4331 18.7182C25.3669 18.7182 25.7786 18.5096 25.7786 18.5096L26.0015 17.2851C26.0015 17.2851 25.2912 17.5972 24.6496 17.5972C23.2827 17.5972 23.5223 16.5796 23.5223 16.5796H26.1098C26.1098 16.5796 26.2771 15.7573 26.2771 15.422C26.2771 14.5853 25.8594 13.5653 24.4617 13.5653ZM29.0971 13.6179C28.5205 13.6179 28.0923 14.3934 28.0923 14.3934L28.2069 13.6816H27.0095L26.2054 18.5956H27.5286C27.9034 16.4971 27.9718 14.7933 28.8662 15.1051C29.0227 14.2929 29.1746 13.9791 29.3455 13.6354C29.3455 13.6354 29.2653 13.6179 29.0971 13.6179ZM39.8184 13.6179C39.2418 13.6179 38.8136 14.3934 38.8136 14.3934L38.9283 13.6816H37.7308L36.9267 18.5956H38.2483C38.6233 16.4971 38.6934 14.7933 39.5875 15.1051C39.7443 14.2929 39.8961 13.9791 40.0668 13.6354C40.0668 13.6354 39.9865 13.6179 39.8184 13.6179ZM24.4553 14.6736C25.1823 14.6736 25.0493 15.4942 25.0493 15.5605H23.6178C23.6178 15.4758 23.7532 14.6736 24.4553 14.6736ZM41.7532 14.7691C42.2158 14.769 42.4538 15.0816 42.4538 15.8169C42.4538 16.4841 42.1173 17.3758 41.4203 17.3758C40.9577 17.3758 40.7404 16.9938 40.7404 16.3949C40.7404 15.4157 41.1884 14.7691 41.7532 14.7691ZM35.3948 16.4411C35.5836 16.4414 35.6226 16.4597 35.6544 16.4682C35.6498 16.4674 35.649 16.4683 35.6671 16.4714C35.691 16.6902 35.5349 17.7166 34.7802 17.7166C34.391 17.7166 34.2914 17.4072 34.2914 17.2245C34.2914 16.8685 34.4767 16.4411 35.3948 16.4411ZM14.8137 16.4459C15.0281 16.4461 15.0514 16.4701 15.0876 16.4762C15.1115 16.6949 14.9548 17.7198 14.1974 17.7198C13.8068 17.7198 13.7054 17.4118 13.7054 17.2293C13.7054 16.8735 13.8919 16.4459 14.8137 16.4459Z" fill="white"/>
</svg>
