<svg width="42" height="32" viewBox="0 0 42 32" fill="none" xmlns="http://www.w3.org/2000/svg">
<path d="M35.1704 13.484C34.5353 13.484 33.8346 13.9622 33.8346 15.1052H36.4561C36.4561 13.9622 35.7927 13.484 35.1704 13.484ZM26.7854 13.6704C26.1991 13.6704 25.8353 13.8774 25.5717 14.1705L25.5859 17.9413C25.8353 18.2062 26.1927 18.4196 26.7854 18.4196C27.7213 18.4196 28.35 17.3988 28.35 16.0347C28.35 14.7066 27.7072 13.664 26.7854 13.6704ZM37.7135 0H3.42885C2.51977 0.00102086 1.64823 0.362601 1.00541 1.00541C0.362601 1.64823 0.00102086 2.51977 0 3.42885V28.5712C0.00102086 29.4802 0.362601 30.3518 1.00541 30.9946C1.64823 31.6374 2.51977 31.999 3.42885 32H37.7135C38.6225 31.999 39.4941 31.6374 40.1369 30.9946C40.7797 30.3518 41.1413 29.4802 41.1423 28.5712V3.42885C41.1413 2.51977 40.7797 1.64823 40.1369 1.00541C39.4941 0.362601 38.6225 0.00102086 37.7135 0ZM8.72961 17.7922C8.72961 19.6204 7.27939 20.6567 5.16577 20.6708C4.21225 20.6668 3.26939 20.47 2.39389 20.0922V17.6701C3.25143 18.1278 4.33009 18.4775 5.1722 18.4775C5.7366 18.4775 6.14415 18.3283 6.14415 17.8565C6.14415 16.6428 2.28718 17.0992 2.28718 14.2926C2.28718 12.4927 3.65898 11.4205 5.71603 11.4205C6.55942 11.4205 7.3951 11.5491 8.2372 11.8846V14.2708C7.45815 13.8626 6.59532 13.64 5.71603 13.6202C5.17991 13.6202 4.85207 13.7771 4.85207 14.1705C4.85207 15.3135 8.72961 14.7709 8.72961 17.7922ZM13.6434 13.7488H11.7149V17.3564C11.7149 18.849 13.322 18.3849 13.6434 18.2563V20.3198C13.3078 20.5062 12.6933 20.6554 11.8653 20.6554C10.3585 20.6554 9.22973 19.5484 9.22973 18.0481L9.24387 9.91241L11.7226 9.38401V11.5838H13.6434V13.7488ZM18.9287 13.9198C18.6073 13.8131 17.5929 13.6627 16.9925 14.4482V20.4767H14.4572V11.5838H16.6505L16.8074 12.3333C17.4001 11.2405 18.5855 11.4616 18.921 11.5838H18.9287V13.9198ZM22.0786 20.4767H19.5278V11.5838H22.0786V20.4767ZM22.0786 10.2698L19.5278 10.8124V8.7489L22.0786 8.20635V10.2698ZM27.3716 20.6631C26.4858 20.6631 25.9433 20.2851 25.5794 20.0203L25.5717 22.8911L23.0364 23.4272V11.5851H25.2722L25.4007 12.2137C25.7504 11.8923 26.3933 11.4205 27.3858 11.4205C29.1651 11.4205 30.8429 13.0276 30.8429 15.9781C30.8429 19.2 29.1857 20.6554 27.3716 20.6631ZM38.8281 16.9848H33.8642C33.9786 18.1702 34.849 18.5199 35.8351 18.5199C36.8418 18.5199 37.635 18.3052 38.328 17.9555V19.9984C37.635 20.3764 36.7274 20.6554 35.5137 20.6554C33.0427 20.6554 31.3135 19.1049 31.3135 16.0489C31.3135 13.4634 32.7778 11.4141 35.1923 11.4141C37.599 11.4141 38.8564 13.4634 38.8564 16.063C38.8564 16.3124 38.8346 16.8421 38.8281 16.9848Z" fill="white"/>
</svg>
