<svg width="48" height="32" viewBox="0 0 48 32" fill="none" xmlns="http://www.w3.org/2000/svg">
<g clip-path="url(#clip0_1_555)">
<path d="M44.8 32H3.2C2.35131 32 1.53737 31.6629 0.937258 31.0627C0.337142 30.4626 0 29.6487 0 28.8L0 3.2C0 2.35131 0.337142 1.53737 0.937258 0.937258C1.53737 0.337142 2.35131 0 3.2 0L44.8 0C45.6487 0 46.4626 0.337142 47.0627 0.937258C47.6629 1.53737 48 2.35131 48 3.2V28.8C48 29.6487 47.6629 30.4626 47.0627 31.0627C46.4626 31.6629 45.6487 32 44.8 32ZM23.7867 19.6827L23.308 22.6827C24.5308 23.1992 25.8522 23.4409 27.1787 23.3907H27.164C28.7183 23.481 30.2574 23.0426 31.5307 22.1467L31.508 22.1613C32.0274 21.7789 32.4498 21.2799 32.7412 20.7044C33.0325 20.1289 33.1846 19.493 33.1853 18.848V18.828C33.1853 17.3613 32.204 16.144 30.2693 15.2027C29.7416 14.9476 29.2366 14.6479 28.76 14.3067L28.7907 14.328C28.6573 14.2421 28.5463 14.1258 28.4667 13.9885C28.3872 13.8513 28.3415 13.6971 28.3333 13.5387V13.536C28.3438 13.371 28.3955 13.2113 28.4838 13.0715C28.5721 12.9317 28.6942 12.8163 28.8387 12.736L28.844 12.7333C29.2915 12.4748 29.8058 12.3555 30.3213 12.3907H30.3133H30.42L30.5227 12.3893C31.3813 12.3893 32.196 12.5747 32.9307 12.9067L32.8933 12.892L33.2053 13.0587L33.684 10.164C32.7163 9.78743 31.6864 9.59655 30.648 9.60133H30.5827H30.5867C29.0844 9.53586 27.6032 9.97315 26.3773 10.844L26.3987 10.8293C25.8891 11.1888 25.4733 11.6653 25.1862 12.219C24.8992 12.7726 24.7494 13.3871 24.7493 14.0107V14.0173C24.736 15.428 25.752 16.6467 27.7707 17.644C28.304 17.8773 28.764 18.1627 29.176 18.5053L29.1667 18.4973C29.2853 18.5976 29.3817 18.7215 29.4499 18.861C29.5181 19.0006 29.5565 19.1528 29.5627 19.308V19.3133C29.5627 19.7387 29.3093 20.104 28.944 20.268L28.9373 20.2707C28.5373 20.4813 28.0627 20.604 27.5587 20.604H27.4973H27.5H27.4C26.2573 20.604 25.1747 20.3507 24.204 19.8973L24.2507 19.9173L23.7933 19.688L23.7867 19.6827ZM37.2867 21.204H41.7067C41.7778 21.5089 41.9169 22.1756 42.124 23.204H45.3333L42.5413 9.82933H39.8747C39.4933 9.79468 39.111 9.8844 38.7848 10.0851C38.4587 10.2858 38.2063 10.5866 38.0653 10.9427L38.0613 10.9547L32.9413 23.204H36.568L37.296 21.2053L37.2867 21.204ZM19.8547 9.82933L17.6867 23.204H21.1453L23.312 9.82933H19.8547ZM6.56267 12.5587L9.376 23.1827H13.0213L18.4547 9.82933H14.7933L11.4147 18.9547L11.06 17.1L9.85467 10.9547C9.79068 10.5999 9.59104 10.284 9.29809 10.0739C9.00513 9.86385 8.64188 9.77612 8.28533 9.82933L8.29333 9.828H2.71067L2.66933 10.0987C6.968 11.1907 9.792 13.5467 11.064 17.0987C10.6746 16.0829 10.0717 15.1627 9.296 14.4L9.29467 14.3987C8.53396 13.6174 7.62392 12.9971 6.61867 12.5747L6.56533 12.5547L6.56267 12.5587ZM41.1453 18.4533H38.2653C38.46 17.9396 38.9187 16.6951 39.6413 14.72L39.7027 14.532L39.916 13.9907C40.0022 13.7684 40.0644 13.588 40.1027 13.4493L40.3533 14.5947L41.144 18.448L41.1453 18.4533Z" fill="white"/>
</g>
<defs>
<clipPath id="clip0_1_555">
<rect width="48" height="32" fill="white"/>
</clipPath>
</defs>
</svg>
