<svg width="60" height="60" viewBox="0 0 60 60" fill="none" xmlns="http://www.w3.org/2000/svg">
<path d="M55 30H57.5M30 5V2.5M30 57.5V55M50 50L47.5 47.5M50 10L47.5 12.5M10 50L12.5 47.5M10 10L12.5 12.5M2.5 30H5M24.88 24.0575L28.7775 15.795C28.8825 15.5584 29.0539 15.3574 29.2709 15.2163C29.4879 15.0752 29.7412 15.0001 30 15.0001C30.2588 15.0001 30.5121 15.0752 30.7291 15.2163C30.9461 15.3574 31.1175 15.5584 31.2225 15.795L35.12 24.0575L43.8325 25.39C44.95 25.56 45.395 27 44.5875 27.825L38.2825 34.25L39.77 43.3275C39.9625 44.495 38.7925 45.3825 37.7925 44.8325L30 40.545L22.2075 44.8325C21.2075 45.3825 20.0375 44.495 20.23 43.3275L21.7175 34.2525L15.4125 27.825C14.605 27 15.05 25.56 16.1675 25.39L24.88 24.0575Z" stroke="#007BFF" stroke-width="3" stroke-linecap="round" stroke-linejoin="round"/>
</svg>
