<svg width="60" height="60" viewBox="0 0 60 60" fill="none" xmlns="http://www.w3.org/2000/svg">
<path d="M7.99996 35.555V10C7.99996 8.67392 8.52675 7.40215 9.46443 6.46447C10.4021 5.52678 11.6739 5 13 5H47C48.326 5 49.5978 5.52678 50.5355 6.46447C51.4732 7.40215 52 8.67392 52 10V35.555M7.99996 35.555H52M7.99996 35.555L4.29996 48.64C4.08982 49.3835 4.05482 50.1655 4.19771 50.9248C4.3406 51.684 4.65749 52.3998 5.12352 53.016C5.58955 53.6322 6.19203 54.1321 6.8837 54.4763C7.57536 54.8205 8.33738 54.9998 9.10996 55H50.89C51.6626 54.9998 52.4246 54.8205 53.1162 54.4763C53.8079 54.1321 54.4104 53.6322 54.8764 53.016C55.3424 52.3998 55.6593 51.684 55.8022 50.9248C55.9451 50.1655 55.9101 49.3835 55.7 48.64L52 35.555" stroke="#007BFF" stroke-width="3"/>
<path d="M27.5 47.5H32.5M35 15L40 20L35 25M25 15L20 20L25 25" stroke="#007BFF" stroke-width="3" stroke-linecap="round" stroke-linejoin="round"/>
</svg>
