<svg width="60" height="60" viewBox="0 0 60 60" fill="none" xmlns="http://www.w3.org/2000/svg">
<path d="M27.5 52.5H10C8.67392 52.5 7.40215 51.9732 6.46447 51.0355C5.52678 50.0979 5 48.8261 5 47.5V12.5C5 11.1739 5.52678 9.90215 6.46447 8.96447C7.40215 8.02678 8.67392 7.5 10 7.5H50C51.3261 7.5 52.5979 8.02678 53.5355 8.96447C54.4732 9.90215 55 11.1739 55 12.5V30" stroke="#007BFF" stroke-width="3" stroke-linecap="round"/>
<path d="M5 17.5H55M12.5 12.525L12.525 12.4975M20 12.525L20.025 12.4975M27.5 12.525L27.525 12.4975M54.1675 41.6675C52.6175 37.7425 49.0875 35 44.975 35C40.58 35 36.845 38.1375 35.4925 42.5" stroke="#007BFF" stroke-width="3" stroke-linecap="round" stroke-linejoin="round"/>
<path d="M49.9875 41.93H53.5C53.6969 41.93 53.892 41.8912 54.074 41.8158C54.256 41.7404 54.4213 41.6299 54.5606 41.4907C54.6999 41.3514 54.8104 41.186 54.8858 41.004C54.9612 40.822 55 40.627 55 40.43V36.375M35.835 48.3325C37.3825 52.2575 40.915 55 45.025 55C49.42 55 53.155 51.8625 54.5075 47.5" stroke="#007BFF" stroke-width="3" stroke-linecap="round" stroke-linejoin="round"/>
<path d="M40.0125 48.07H36.5C36.1022 48.07 35.7206 48.228 35.4393 48.5093C35.158 48.7907 35 49.1722 35 49.57V53.625" stroke="#007BFF" stroke-width="3" stroke-linecap="round" stroke-linejoin="round"/>
</svg>
