<svg width="60" height="60" viewBox="0 0 60 60" fill="none" xmlns="http://www.w3.org/2000/svg">
<path d="M17.045 55V47.8575C16.3 40.415 7.5 36.43 7.5 25C7.5 13.575 14.3175 4.86002 27.955 5.00002C37.7725 5.10502 47.045 10.715 47.045 22.145L52.5 30.715C52.5 36.43 47.045 36.43 47.045 36.43C47.045 36.43 48.41 50.715 36.135 50.715V55" stroke="#007BFF" stroke-width="3" stroke-linecap="round" stroke-linejoin="round"/>
<path d="M27.5 30C28.8261 30 30.0979 29.4732 31.0355 28.5355C31.9732 27.5979 32.5 26.3261 32.5 25C32.5 23.6739 31.9732 22.4021 31.0355 21.4645C30.0979 20.5268 28.8261 20 27.5 20C26.1739 20 24.9021 20.5268 23.9645 21.4645C23.0268 22.4021 22.5 23.6739 22.5 25C22.5 26.3261 23.0268 27.5979 23.9645 28.5355C24.9021 29.4732 26.1739 30 27.5 30Z" stroke="#007BFF" stroke-width="3" stroke-linecap="round" stroke-linejoin="round"/>
<path d="M27.5 32.5C29.4891 32.5 31.3968 31.7098 32.8033 30.3033C34.2098 28.8968 35 26.9891 35 25C35 23.0109 34.2098 21.1032 32.8033 19.6967C31.3968 18.2902 29.4891 17.5 27.5 17.5C25.5109 17.5 23.6032 18.2902 22.1967 19.6967C20.7902 21.1032 20 23.0109 20 25C20 26.9891 20.7902 28.8968 22.1967 30.3033C23.6032 31.7098 25.5109 32.5 27.5 32.5Z" stroke="#007BFF" stroke-width="3" stroke-linecap="round" stroke-linejoin="round" stroke-dasharray="0.6 4"/>
</svg>
