<svg width="24" height="24" viewBox="0 0 24 24" fill="none" xmlns="http://www.w3.org/2000/svg">
<path d="M7 12L12 15.5L17 12" stroke="#007BFF" stroke-width="2" stroke-linecap="round" stroke-linejoin="round"/>
<path d="M2 20V9.13205C2 8.78668 2.08943 8.44719 2.25959 8.14665C2.42976 7.8461 2.67485 7.59474 2.971 7.41705L10.971 2.61705C11.2818 2.43055 11.6375 2.33203 12 2.33203C12.3625 2.33203 12.7182 2.43055 13.029 2.61705L21.029 7.41705C21.3252 7.59474 21.5702 7.8461 21.7404 8.14665C21.9106 8.44719 22 8.78668 22 9.13205V20C22 20.5305 21.7893 21.0392 21.4142 21.4143C21.0391 21.7893 20.5304 22 20 22H4C3.46957 22 2.96086 21.7893 2.58579 21.4143C2.21071 21.0392 2 20.5305 2 20Z" stroke="#007BFF" stroke-width="2"/>
</svg>
