<svg width="25" height="24" viewBox="0 0 25 24" fill="none" xmlns="http://www.w3.org/2000/svg">
<path d="M19.5501 4.91005C18.6331 3.98416 17.5411 3.25002 16.3376 2.75042C15.134 2.25081 13.8431 1.99574 12.54 2.00005C7.08005 2.00005 2.63005 6.45005 2.63005 11.9101C2.63005 13.6601 3.09005 15.3601 3.95005 16.8601L2.55005 22.0001L7.80005 20.6201C9.25005 21.4101 10.88 21.8301 12.54 21.8301C18.0001 21.8301 22.4501 17.3801 22.4501 11.9201C22.4501 9.27005 21.4201 6.78005 19.5501 4.91005ZM12.54 20.1501C11.0601 20.1501 9.61005 19.7501 8.34005 19.0001L8.04005 18.8201L4.92005 19.6401L5.75005 16.6001L5.55005 16.2901C4.7276 14.9771 4.29097 13.4593 4.29005 11.9101C4.29005 7.37005 7.99005 3.67005 12.53 3.67005C14.7301 3.67005 16.8001 4.53005 18.3501 6.09005C19.1177 6.85392 19.726 7.7626 20.1397 8.76338C20.5534 9.76417 20.7642 10.8371 20.7601 11.9201C20.7801 16.4601 17.0801 20.1501 12.54 20.1501ZM17.0601 13.9901C16.8101 13.8701 15.59 13.2701 15.3701 13.1801C15.14 13.1001 14.9801 13.0601 14.8101 13.3001C14.6401 13.5501 14.17 14.1101 14.03 14.2701C13.89 14.4401 13.74 14.4601 13.49 14.3301C13.24 14.2101 12.4401 13.9401 11.5 13.1001C10.76 12.4401 10.27 11.6301 10.12 11.3801C9.98005 11.1301 10.1 11.0001 10.23 10.8701C10.34 10.7601 10.4801 10.5801 10.6 10.4401C10.72 10.3001 10.7701 10.1901 10.85 10.0301C10.93 9.86005 10.89 9.72005 10.83 9.60005C10.77 9.48005 10.27 8.26005 10.07 7.76005C9.87005 7.28005 9.66005 7.34005 9.51005 7.33005H9.03005C8.86005 7.33005 8.60005 7.39005 8.37005 7.64005C8.15005 7.89005 7.51005 8.49005 7.51005 9.71005C7.51005 10.9301 8.40005 12.1101 8.52005 12.2701C8.64005 12.4401 10.27 14.9401 12.75 16.0101C13.34 16.2701 13.8 16.4201 14.16 16.5301C14.75 16.7201 15.2901 16.6901 15.7201 16.6301C16.2001 16.5601 17.1901 16.0301 17.39 15.4501C17.6 14.8701 17.6001 14.3801 17.5301 14.2701C17.4601 14.1601 17.3101 14.1101 17.0601 13.9901Z" fill="#25D366"/>
</svg>
