<svg width="25" height="24" viewBox="0 0 25 24" fill="none" xmlns="http://www.w3.org/2000/svg">
<path d="M13.704 11.273C14.078 11.383 14.434 11.547 14.761 11.758C15.096 11.978 15.376 12.274 15.577 12.62C15.786 13.004 15.892 13.435 15.884 13.872C15.9019 14.4355 15.7339 14.9893 15.406 15.448C15.0614 15.9188 14.5886 16.2806 14.044 16.49C13.4575 16.7231 12.83 16.8357 12.199 16.821C11.4567 16.8418 10.7204 16.6826 10.053 16.357C9.61464 16.1257 9.23812 15.7928 8.955 15.386C8.67172 14.9946 8.51314 14.5269 8.5 14.044C8.5 13.8269 8.58623 13.6187 8.73973 13.4652C8.89323 13.3117 9.10142 13.2255 9.3185 13.2255C9.53558 13.2255 9.74377 13.3117 9.89727 13.4652C10.0508 13.6187 10.137 13.8269 10.137 14.044C10.153 14.194 10.21 14.336 10.302 14.456C10.432 14.643 10.605 14.796 10.806 14.903C11.241 15.107 11.719 15.203 12.199 15.185C12.6144 15.1983 13.0283 15.1279 13.416 14.978C13.676 14.885 13.904 14.718 14.072 14.5C14.1974 14.3259 14.2595 14.1142 14.248 13.9C14.2556 13.7351 14.2223 13.5709 14.151 13.422C14.0773 13.2995 13.9755 13.1963 13.854 13.121C13.6599 12.9988 13.4499 12.9039 13.23 12.839C13.0487 12.7857 12.856 12.7323 12.652 12.679L12.637 12.677L12.593 12.666C12.4579 12.631 12.3222 12.5983 12.186 12.568C11.825 12.49 11.574 12.428 11.417 12.38L11.407 12.374L11.399 12.37C11.0357 12.2813 10.679 12.17 10.329 12.036C9.86764 11.8505 9.46241 11.5483 9.153 11.159C8.83204 10.7384 8.66444 10.2208 8.678 9.69199C8.678 9.16199 8.852 8.64499 9.173 8.22199C9.507 7.79599 9.954 7.47199 10.463 7.28799C11.0255 7.08574 11.6203 6.98813 12.218 6.99999C12.688 6.99499 13.157 7.05999 13.608 7.19299C13.998 7.30699 14.364 7.49299 14.687 7.74099C14.967 7.95299 15.199 8.21899 15.372 8.52499C15.4748 8.71608 15.4974 8.94016 15.435 9.14795C15.3725 9.35574 15.2301 9.53022 15.039 9.63299C14.9444 9.68388 14.8407 9.71563 14.7338 9.72643C14.6269 9.73724 14.5189 9.72688 14.416 9.69596C14.2082 9.63351 14.0338 9.49108 13.931 9.29999C13.8603 9.18932 13.7717 9.09599 13.665 9.01999C13.5012 8.90029 13.3173 8.81088 13.122 8.75599C12.8279 8.67154 12.5229 8.63111 12.217 8.63599C11.8219 8.62486 11.4279 8.68481 11.054 8.81299C10.831 8.88899 10.634 9.02299 10.481 9.20299C10.3726 9.34263 10.3135 9.51423 10.313 9.69099C10.3006 9.85595 10.347 10.02 10.444 10.154C10.578 10.317 10.751 10.444 10.948 10.52C11.3297 10.6667 11.7227 10.7825 12.123 10.866C12.459 10.94 12.73 11.006 12.96 11.069C13.221 11.134 13.475 11.203 13.704 11.273Z" fill="#00AFF0"/>
<path fill-rule="evenodd" clip-rule="evenodd" d="M8.49998 2.75004C7.60477 2.74981 6.72437 2.9785 5.94244 3.41438C5.16051 3.85026 4.50303 4.47884 4.03246 5.2404C3.5619 6.00196 3.29389 6.8712 3.2539 7.76551C3.21391 8.65983 3.40327 9.54952 3.80398 10.35C3.53481 11.7672 3.61611 13.2286 4.04079 14.6071C4.46548 15.9856 5.22067 17.2394 6.24064 18.2594C7.2606 19.2793 8.51442 20.0345 9.89293 20.4592C11.2714 20.8839 12.7329 20.9652 14.15 20.696C15.1357 21.1896 16.2518 21.3604 17.3401 21.1841C18.4283 21.0079 19.4334 20.4935 20.2129 19.714C20.9925 18.9345 21.5068 17.9293 21.6831 16.8411C21.8593 15.7529 21.6886 14.6368 21.195 13.651C21.4643 12.234 21.3831 10.7725 20.9586 9.39397C20.534 8.01541 19.779 6.76152 18.7591 5.74146C17.7392 4.7214 16.4855 3.96608 15.107 3.54126C13.7285 3.11645 12.2671 3.03501 10.85 3.30404C10.121 2.93721 9.31601 2.74808 8.49998 2.75004ZM4.74998 8.00004C4.74992 7.34311 4.92242 6.6977 5.25023 6.12841C5.57804 5.55912 6.04965 5.08593 6.61784 4.75622C7.18603 4.4265 7.83086 4.25183 8.48778 4.2497C9.1447 4.24756 9.79066 4.41803 10.361 4.74404C10.5233 4.83692 10.7145 4.86581 10.897 4.82504C12.1055 4.55453 13.3627 4.59376 14.552 4.93909C15.7413 5.28441 16.824 5.92463 17.6997 6.80031C18.5754 7.67599 19.2156 8.75874 19.5609 9.94802C19.9063 11.1373 19.9455 12.3945 19.675 13.603C19.6342 13.7856 19.6631 13.9767 19.756 14.139C20.1653 14.8535 20.3281 15.6827 20.2193 16.4989C20.1104 17.315 19.736 18.0727 19.1538 18.6549C18.5716 19.2371 17.814 19.6115 16.9978 19.7203C16.1817 19.8292 15.3524 19.6663 14.638 19.257C14.4761 19.1641 14.2853 19.1348 14.103 19.175C12.8945 19.4455 11.6372 19.4063 10.448 19.061C9.25868 18.7157 8.17594 18.0754 7.30026 17.1998C6.42458 16.3241 5.78435 15.2413 5.43903 14.0521C5.0937 12.8628 5.05447 11.6055 5.32498 10.397C5.36575 10.2145 5.33686 10.0234 5.24398 9.86104C4.91928 9.29463 4.74894 8.65292 4.74998 8.00004Z" fill="#00AFF0"/>
</svg>
