<svg width="32" height="32" viewBox="0 0 32 32" fill="none" xmlns="http://www.w3.org/2000/svg">
<path d="M16 29.3333C8.63596 29.3333 2.66663 23.364 2.66663 16C2.66663 8.63596 8.63596 2.66663 16 2.66663C23.364 2.66663 29.3333 8.63596 29.3333 16C29.3333 23.364 23.364 29.3333 16 29.3333Z" stroke="#007BFF" stroke-width="3" stroke-linecap="round" stroke-linejoin="round"/>
<path d="M22 19.3333C22 19.3333 20 21.9999 16 21.9999C12 21.9999 10 19.3333 10 19.3333" stroke="#007BFF" stroke-width="3" stroke-linecap="round" stroke-linejoin="round"/>
<path d="M20.6666 12C20.4898 12 20.3202 11.9297 20.1952 11.8047C20.0702 11.6797 20 11.5101 20 11.3333C20 11.1565 20.0702 10.9869 20.1952 10.8619C20.3202 10.7369 20.4898 10.6666 20.6666 10.6666C20.8434 10.6666 21.013 10.7369 21.138 10.8619C21.2631 10.9869 21.3333 11.1565 21.3333 11.3333C21.3333 11.5101 21.2631 11.6797 21.138 11.8047C21.013 11.9297 20.8434 12 20.6666 12ZM11.3333 12C11.1565 12 10.9869 11.9297 10.8619 11.8047C10.7369 11.6797 10.6666 11.5101 10.6666 11.3333C10.6666 11.1565 10.7369 10.9869 10.8619 10.8619C10.9869 10.7369 11.1565 10.6666 11.3333 10.6666C11.5101 10.6666 11.6797 10.7369 11.8047 10.8619C11.9297 10.9869 12 11.1565 12 11.3333C12 11.5101 11.9297 11.6797 11.8047 11.8047C11.6797 11.9297 11.5101 12 11.3333 12Z" fill="#007BFF" stroke="#007BFF" stroke-width="3" stroke-linecap="round" stroke-linejoin="round"/>
</svg>
